<svg xmlns="http://www.w3.org/2000/svg" xmlns:xlink="http://www.w3.org/1999/xlink" viewBox="0 0 535.44 564.72"><g id="Full_Map_Image" data-name="Full_Map Image"><image id="Full_Map_Image-2" data-name="Full_Map Image" width="2231" height="2353" transform="scale(0.24)" xlink:href="campingSpotsSVG21.png"/></g><g id="Nilfheim" style="isolation:isolate"><path d="M482.4,175a22.77,22.77,0,0,0,1.2,5.28v1.44h.24v1.44h.24v1.44h.24v1.92h.24v1.92h.24l.24,7.44h.24a16,16,0,0,1-.24,5.28c-.39,1.39.11,3.56-.24,4.8l-.24,4.8c-.39,1.34-.57,3.25-1,4.56v1.44h-.24v1.2h-.24v1.2h-.24v1h-.24v1h-.24v1h-.24l-.24,1.92h-.24l-.24,1.68h-.24v.72H481V227h-.24l-.72,3.12h-.24v.48h-.24L479,232.8h-.24v.48h-.24V234h-.24v.48h-.24v.72h-.24l-.24,1h-.24v.72h-.24l-.24,1h-.24v.72h-.24l-.48,1.44h-.24v.48h-.24V241h-.24v.48H475v.48h-.24v.48h-.24v.48h-.24v.48H474v.48h-.24v.48h-.24v.48L473,245v.48h-.24V246h-.24v.48h-.24V247l-.48.24-.24,1-.48.24-.24,1h-.24l-.24.72-.48.24-.24,1h-.24l-.24.72-.48.24v.48h-.24l-.24.72-.48.24v.48l-.72.48v.48l-.48.24v.48l-.72.48v.48l-.72.48v.48l-.72.48v.48l-.72.48v.48l-1,.72v.48l-1.2,1v.48l-1.68,1.44v.48l-1.68,1.44-.48.72h-.24v.48L455,269,453.36,271h-.48L451,273.12h-.24l-.24.48H450L448.8,275h-.48l-1,1.2h-.48l-1,1.2h-.48l-.24.48-.72.24-.72,1h-.48l-.48.72h-.48l-.24.48h-.48l-.48.72h-.48l-.24.48h-.48l-.48.72H439l-.24.48h-.48l-.24.48h-.48l-.24.48h-.48l-.24.48-1,.24v.24l-.72.24-.24.48-1,.24-.24.48-1,.24-.24.48-1.44.48-.24.48h-.48V288h-.48v.24h-.48v.24h-.48l-.24.48-1,.24v.24H427v.24h-.48v.24H426v.24h-.48v.24H425v.24l-1,.24v.24h-.48v.24h-.48v.24l-1.44.48v.24l-1.2.24v.24l-1,.24v.24h-.72v.24l-1,.24V294h-.72v.24h-.48v.24h-.72v.24h-.48V295h-.72v.24h-.48v.24l-1.44.24v.24h-.48v.24h-.72v.24h-.72v.24h-.72v.24h-.72v.24h-.72v.24H408v.24h-.72v.24h-.72v.24h-1v.24h-.72v.24h-.72v.24l-1.92.24v.24h-.72v.24h-1v.24h-1V300h-1v.24h-1v.24l-3.36.48v.24h-1.2v.24l-2.88.24v.24H388.8v.24h-1.44v.24h-1.92v.24h-1.92v.24h-2.16v.24h-2.88v.24h-3.84c-2,.55-5.25.24-7.68.24l-8.4-.24v-.24h-2.88v-.24h-2.16v-.24H351.6v-.24h-1.68v-.24h-1.68c-1.59-.47-3.74-.72-5.28-1.2l-2.4-.24v-.24l-2.16-.24V300h-1v-.24h-1v-.24h-1v-.24h-.72V299h-1v-.24l-1.68-.24v-.24l-2.4-.48v-.24H329v-.24h-.72v-.24h-.72v-.24l-2.16-.48v-.24H325v-.24l-1.44-.24v-.24H323v-.24h-.72V295h-.48v-.24l-1.2-.24v-.24h-.72V294h-.48v-.24h-.72v-.24l-1-.24V293H317v-.24h-.48v-.24l-1.44-.48v-.24h-.72v-.24l-1.44-.48v-.24h-.48v-.24H312v-.24h-.48v-.24H311v-.24h-.48v-.24h-.48v-.24h-.48l-.24-.48h-.48v-.24h-.48v-.24h-.48v-.24h-.48V288H307l-.24-.48-1.44-.48-.24-.48h-.48v-.24h-.48l-.24-.48-1-.24-.24-.48h-.48v-.24h-.48l-.24-.48H301l-.24-.48h-.48l-.24-.48h-.48l-.24-.48h-.48l-.24-.48h-.48v-.24l-.72-.24-.24-.48h-.48l-.48-.72h-.48l-.24-.48H295l-.48-.72H294l-.48-.72H293l-.72-1-.72-.24-.24-.48h-.48l-.24-.48-.72-.48V276h-.48l-1-1.2H288l-1.44-1.68h-.48l-3.6-3.84H282l-1.44-1.92-2.88-2.64v-.48L276,262.8v-.48l-1.2-1v-.48l-1-.72v-.48l-1-.72v-.48l-.72-.48v-.48l-.72-.48v-.48l-.72-.48v-.48l-.72-.48v-.48l-.48-.24v-.48l-.48-.24v-.48l-.48-.24v-.48l-.48-.24v-.48l-.48-.24V251l-.48-.24-.24-1-.48-.24v-.48l-.48-.24v-.48h-.24v-.48l-.48-.24-.48-1.44-.48-.24v-.48H264V245h-.24v-.48h-.24v-.48h-.24l-.24-1-.48-.24-.24-1h-.24l-.48-1.44h-.24v-.72h-.24v-.48h-.24l-.48-1.44h-.24v-.72h-.24l-.24-1h-.24v-.72h-.24l-.24-1h-.24v-.72h-.24v-.48h-.24l-.24-1.44h-.24v-.48h-.24v-.72h-.24v-.72H257v-.72h-.24v-.72h-.24v-.72h-.24V227h-.24l-.48-2.4h-.24l-.24-1.92h-.24l-.48-2.88h-.24l-.24-2.16h-.24v-1.44h-.24V215h-.24V213.6H253v-1.68h-.24v-1.68h-.24v-2.4h-.24v-2.16H252c-.05-.49.1-.28.24-.48l.24-.72h.24l.24-.72.48-.24V203l.72-.48v-.48l1.2-1v-.48l2.88-2.64,1.2-1.44h.48l.72-1h.48l.48-.72h.48l.48-.72H263l.24-.48h.48l.24-.48,1-.24.24-.48h.48v-.24h.48V192h.48v-.24h.48l.24-.48h.72V191h.48v-.24l1-.24v-.24h.72v-.24h.48v-.24l1.44-.24v-.24h.72v-.24h.72v-.24h.72v-.24l6.24-1.2h2.64v-.24a27.92,27.92,0,0,1,7,.24h2.64c1.77.51,4,.69,5.76,1.2H300v.24h1v.24h1.2v.24h1v.24h1v.24h.72v.24h.72v.24h1v.24l1.44.24V191h.48v.24h.72v.24l1.2.24V192h.48v.24h.72v.24L313,193v.24h.48v.24h.48v.24h.48v.24h.48v.24h.48v.24h.48v.24l.72.24.24.48h.48v.24l.72.24.24.48h.48l.48.72h.48l.24.48h.48l.48.72h.48l.24.48h.48l.48.72H323l.24.48h.48l.48.72h.48l.24.48h.48l.24.48.72.24.48.72h.48l.24.48h.48l.48.72H329l.48.72H330l.48.72H331l.48.72h.48l.48.72h.48l.48.72h.48l.48.72h.48l.24.48h.48l.24.48.72.24v.24l1.44.48v.24h.48v.24l1.44.48v.24h.72v.24l1,.24v.24h.72v.24h.48v.24l1.44.24v.24h.48v.24h.72v.24h1v.24H347v.24h1v.24h1v.24h1v.24l2.4.24V215H354v.24h1.92v.24h2.4v.24h4.56V216a5.19,5.19,0,0,0,2.4-.24h2.4a17.84,17.84,0,0,0,4.56-.48l6-.48v-.24l2.88-.24v-.24h1.44v-.24h1.2v-.24H385v-.24h1.2v-.24h1v-.24h1v-.24h1.2v-.24h1v-.24l2.64-.48v-.24h.72v-.24l1.68-.24v-.24h1v-.24l1.44-.24V210h.72v-.24h.72v-.24h.72v-.24h.72V209h.72v-.24l1.44-.24v-.24l1.44-.24v-.24h.72v-.24h.72v-.24h.72v-.24H407v-.24h.72v-.24h.48v-.24l2.16-.48v-.24h.72v-.24h.72v-.24h.72V205h.72v-.24H414v-.24l1.44-.24V204h.48v-.24l2.16-.48V203h.72v-.24h.72v-.24h.72v-.24H421v-.24l1.44-.24v-.24h.48v-.24l5-1.44c3.8-1.66,8.21-2.91,12-4.56l1.44-.24v-.24h.72v-.24h.48v-.24l1.44-.24v-.24h.72v-.24h.48v-.24l2.16-.48v-.24h.48v-.24h.72v-.24H449V192l1.44-.24v-.24H451v-.24h.72V191h.48v-.24l1.2-.24v-.24h.72v-.24h.48v-.24h.72v-.24l1-.24v-.24H457v-.24h.48v-.24h.72v-.24h.48v-.24h.48v-.24h.48v-.24h.72v-.24h.48v-.24h.48V187l1.44-.48v-.24h.72V186l1.44-.48v-.24h.48V185h.48v-.24l1.44-.48.24-.48H468v-.24h.48v-.24H469v-.24h.48v-.24l1-.24.24-.48,1.44-.48.24-.48,1-.24v-.24l.72-.24.24-.48,1-.24v-.24l.72-.24.24-.48h.48l.24-.48h.48l.24-.48h.48v-.24l.72-.24.24-.48h.48l.24-.48h.48l.24-.48.72-.24v-.24A1.82,1.82,0,0,1,482.4,175Z" fill="none" fill-rule="evenodd"/></g><g id="Alfheim" style="isolation:isolate"><path d="M170.4,519.12h.48a10.58,10.58,0,0,1,1.92-1.92l4.56-4.56c2.59-2.59,4.9-5.54,7.92-7.68l.48-.72h.48l.24-.48,1.44-.48V503h.48v-.24l1.44-.48v-.24h.72v-.24h.72v-.24H192v-.24h.72v-.24h1v-.24l2.4-.24v-.24h1.68a17.19,17.19,0,0,1,5.52-.24v.24c1.56.43,5.68-.17,6.72-.48l2.4-.24v-.24l1.92-.24V499l1.44-.24c2.26-.9,4.94-1.74,7.2-2.64h.72v-.24h.72v-.24h.72v-.24h.72v-.24l4.56-1c5.11-1.85,10.77-3.21,15.84-5l4.08-1v-.24l1.44-.24v-.24h.72v-.24h.72V487h.72v-.24l2.4-.48V486l1.44-.24v-.24l2.16-.48v-.24h.48v-.24h.72v-.24h.72v-.24h.72v-.24h.72v-.24h.48v-.24l1.44-.24v-.24h.48v-.24l1.44-.24v-.24h.48v-.24l1.44-.24v-.24l1.2-.24V481h.48v-.24h.72v-.24h.48v-.24h.72V480l1-.24v-.24h.72v-.24h.48V479l1-.24v-.24h.72v-.24H277v-.24l1-.24v-.24l1-.24v-.24h.48v-.24h.48v-.24h.48v-.24h.48v-.24h.48v-.24h.48v-.24h.48v-.24h.48v-.24h.48V475h.48v-.24h.48l.24-.48h.48V474h.48v-.24h.48v-.24h.48v-.24h.48l.24-.48,1.44-.48.24-.48,1-.24.24-.48h.48l.24-.48h.48l.24-.48,1-.24.24-.48H293l.48-.72H294v-.24l.72-.24.24-.48h.48l.24-.48.72-.24.48-.72h.48l.24-.48h.24l.24-.48h.48l.72-1h.48l1.44-1.68h.48l2.88-3.12,3.84-3.6v-.48l1.2-1v-.48l1-.72v-.48l.72-.48v-.48l.72-.48V451l.48-.24.24-.72H313v-.48l.48-.24.24-.72h.24l.24-1,.48-.24.48-1.44.48-.24.24-1h.24v-.48h.24l.48-1.44H317v-.72h.24l.24-1h.24v-.72H318v-.48h.24v-.72h.24v-.48h.24l2.16-7.92v-1.68h.24V427.2h.24v-3.12a11.5,11.5,0,0,0,.24-4.56h-.24v-3.36l-1.44-7.92-2.64-7.68H317l-.48-1.44h-.24v-.48h-.24v-.48h-.24v-.48h-.24v-.48h-.24v-.48h-.24v-.48l-.48-.24-.24-1-.48-.24-.24-1h-.24l-.24-.72-.48-.24-.24-1-.72-.48V391l-.48-.24v-.48l-.48-.24-.24-.72-.72-.48v-.48l-.72-.48v-.48l-1.2-1v-.48h-.24l-.48-.72-1.44-1.2v-.48h-.24l-.48-.72-1-.72v-.72h.24A11.43,11.43,0,0,0,307,383l.24.48h.48l.24.48h.48v.24l.72.24.24.48h.48l.48.72h.48l.48.72h.48l.48.72h.48l.72,1h.48l.72,1h.48l1.2,1.44h.48l1.92,2.16h.48l1.68,1.92,2.64,2.4v.48l.48.24v.24l1.68,1.44v.48l1.2,1v.48l1.2,1v.48l.48.24.24.72,1,.72v.48l.48.24v.48l.72.48v.48l.72.48v.48l.48.24v.48l.48.24V409l.48.24v.48l.48.24v.48l.48.24v.48h.24v.48l.48.24.24,1,.48.24v.48h.24V414l.48.24v.48h.24v.48h.24v.48H337v.48l.48.24v.48h.24v.48h.24v.48h.24v.48h.24v.48h.24v.48h.24v.48h.24v.48h.24l.48,1.44h.24l.24,1.2h.24l.24,1H341v.72h.24l.24,1h.24v.72H342v.48h.24l.24,1.44h.24v.48H343l.48,2.16c1.29,3,2.08,6.59,3.12,9.84v1.2h.24v1H347V444h.24v1.2h.24v1.44h.24v1.44H348v1.68h.24v1.92h.24v2.4h.24l.24,10.56-.24,7.92h-.24V475h-.24v1.92H348v1.68h-.24V480h-.24v1.44h-.24v1.2H347v1.2h-.24V485h-.24v1h-.24v1h-.24v1.2h-.24l-.48,2.64h-.24v.72h-.24v1h-.24v.72h-.24v.72h-.24v.72h-.24v.72h-.24v.72h-.24v.72h-.24l-.48,2.16h-.24v.48h-.24v.72H342v.48h-.24v.72h-.24v.48h-.24v.72H341V503h-.24v.72h-.24l-.24,1h-.24v.48h-.24v.72h-.24v.48h-.24l-.24,1h-.24v.48h-.24v.48h-.24v.48h-.24v.48h-.24v.48h-.24v.48h-.24v.48h-.24v.48H337v.48h-.24v.48l-.48.24v.48H336v.48h-.24v.48h-.24v.48l-.48.24V515h-.24v.48l-.48.24-.24,1-.48.24v.48h-.24v.48l-.48.24v.48l-.48.24v.48l-.48.24v.48h-.24l-.24.72L331,521v.48h-.24l-.24.72-.48.24V523l-.72.48v.48l-.72.48v.48l-.72.48v.48l-.72.48v.48l-1,.72V528l-1.2,1v.48l-1.44,1.2v.48L321.36,533v.48l-2.4,2.16-2.16,2.4h-.48l-1.92,2.16-.72.24-1,1.2h-.48l-1,1.2h-.48l-.24.48h-.24l-.24.48h-.48l-.48.72-.72.24-.24.48h-.48l-.48.72-.72.24-.24.48h-.48l-.24.48-.72.24v.24h-.48l-.24.48h-.48l-.24.48h-.48l-.24.48h-.48l-.24.48-.72.24v.24l-1,.24-.24.48-1,.24-.24.48-1.44.48-.24.48h-.48v.24h-.48V553h-.48v.24h-.48v.24l-1,.24-.24.48-1,.24v.24l-1,.24v.24h-.72v.24h-.48v.24h-.48v.24l-1.44.48v.24h-.72v.24l-1,.24v.24h-.72v.24h-.48v.24l-1.2.24v.24h-.72v.24h-.48v.24l-10.08,3.12L262.8,564l-4.32.24v.24h-3.36a36,36,0,0,1-10.32,0h-3.36v-.24H239c-1.4-.41-3.43-.55-4.8-1l-3.84-.48-11.76-3.36v-.24h-.48V559l-1.44-.24v-.24l-1.2-.24V558H215v-.24h-.72v-.24l-1-.24V557h-.72v-.24h-.48v-.24l-1.44-.48v-.24H210v-.24l-1.44-.48v-.24h-.48v-.24l-1.44-.48-.24-.48h-.48v-.24h-.48v-.24H205V553h-.48l-.24-.48L202.8,552l-.24-.48-1-.24V551l-.72-.24-.24-.48-1-.24v-.24l-.72-.24-.24-.48h-.48l-.48-.72h-.48l-.24-.48h-.48l-.24-.48h-.48l-.24-.48-.72-.24-.48-.72h-.48l-.24-.48-.72-.24-.72-1h-.48l-1-1.2h-.48l-1.2-1.44h-.48l-3.6-3.84L181,534v-.48l-1.44-1.2v-.48l-.48-.24v-.24l-.72-.48v-.48l-1-.72v-.48l-.72-.48v-.48l-.72-.48v-.48l-.72-.48-.24-.72-.48-.24v-.48l-.48-.24v-.48l-.48-.24v-.48l-.48-.24v-.48l-.48-.24v-.48l-.48-.24-.24-1-.48-.24v-.48l-.48-.24v-.48h-.24Z" fill="none" fill-rule="evenodd"/></g><g id="Muspelheim" style="isolation:isolate"><path d="M83.52,423.84H83l-.72,2.4h-.24V427h-.24v.48H81.6v.72h-.24v.72h-.24v.72h-.24v.72h-.24L79.44,438a15.35,15.35,0,0,0,.24,5v2.64h.24v1.44h.24v1.44h.24v1.2h.24v1h.24v.72h.24v1a6.55,6.55,0,0,1,.72,2.4h.48L83,457h.24v.72h.24l.24,1H84v.72h.24v.48h.24v.72h.24V461H85v.72h.24v.48h.24l.48,2.16h.24v.48h.24l.24,1.44h.24V467h.24v.72h.24l.48,2.4h.24v.72h.24v1h.24l.48,2.4h.24l.48,2.4H90v.72h.24v.72h.24v.72h.24v.72H91l.48,2.16h.24v.48h.24l.24,1.44h.24v.48h.24l.24,1.44h.24l.24,1.2h.24v.48h.24v.72h.24l.24,1h.24v.72h.24v.48H95v.72h.24l.24,1h.24v.48H96V493h.24l.24,1h.24v.72H97v.48h.24v.48h.24v.48h.24v.72h.24l.24,1h.24v.48h.24V499h.24l.48,1.44h.24v.48h.24v.72h.24v.48h.24l.24,1h.24v.48H101V504h.24v.48h.24V505h.24v.48H102v.48h.24v.48h.24v.48h.24v.48H103v.48l.48.24.48,1.44h.24l.24.72.48.24V511h.24l.24.72.48.24v.48l.72.48v.48l1.2,1v.48l1,.72,1.92,2.16h.48l1.2,1.44h.48l.48.72h.48l.48.72h.48l.48.72h.48l.24.48.72.24v.24l1,.24.24.48,1,.24.24.48h.48v.24H120v.24h.48v.24H121v.24h.48v.24h.48v.24h.48v.24l1.44.48v.24h.72v.24H125v.24l1.44.24V527H127v.24l2.4.48V528h.72v.24h1v.24l2.16.24V529h1.2v.24l3.6.24v.24h4.32a.63.63,0,0,0,.72.24v-.24h4.32v-.24h2.16v-.24h1.68V529h1.44a14.52,14.52,0,0,1,4.32-1v.24l-.72.48V529h-.48l-.24.48H155l-.24.48h-.48l-.24.48h-.48l-.24.48h-.48l-.24.48h-.48l-.24.48h-.48l-.24.48-1,.24L150,533l-1,.24-.24.48-1.44.48-.24.48h-.48V535h-.48v.24h-.48v.24h-.48v.24h-.48l-.24.48-1,.24v.24l-1.44.48v.24h-.72v.24h-.48v.24h-.48v.24l-1.44.48v.24h-.72V539l-1,.24v.24l-11.76,4.08-1.92.24c-2.31.78-5.26,1.2-7.68,1.92l-7.2.72v.24L97.44,547c-1.85,0-4.3.18-5.76-.24H88.8v-.24H86.64v-.24H84.72V546l-4.32-.48-10.8-2.64v-.24h-.72v-.24h-.72v-.24h-.72v-.24h-.72v-.24H66v-.24l-1.44-.24V541h-.48v-.24l-1.44-.24v-.24h-.48V540h-.72v-.24l-1-.24v-.24h-.72V539l-1-.24v-.24h-.72v-.24H57.6v-.24l-1-.24v-.24l-1-.24v-.24H55.2v-.24h-.48v-.24h-.48v-.24h-.48v-.24h-.48v-.24H52.8v-.24h-.48v-.24h-.48v-.24h-.48V535h-.48v-.24H50.4l-.24-.48h-.48V534l-1-.24-.24-.48-1-.24v-.24l-.72-.24-.24-.48-1-.24-.24-.48h-.48v-.24l-.72-.24-.24-.48h-.48v-.24l-.72-.24-.24-.48H42l-.48-.72H41l-.24-.48h-.48l-.48-.72h-.48l-.48-.72H38.4l-.48-.72h-.48l-.72-1h-.48l-1-1.2H34.8l-1.2-1.44h-.48l-2.64-2.88H30l-.72-1L27.36,517v-.48l-2.88-2.64v-.48L23,512.16v-.48l-.48-.24v-.24l-.72-.48v-.48l-1-.72V509l-.72-.48v-.48l-.72-.48v-.48l-.72-.48v-.48l-.72-.48v-.48l-.48-.24-.24-.72H17v-.48l-.48-.24V503l-.48-.24v-.48l-.48-.24v-.48l-.48-.24v-.48l-.48-.24v-.48H14.4v-.48h-.24l-.24-.72h-.48l-.72-2.16-.48-.24v-.48H12v-.48h-.24v-.48h-.24v-.48h-.24v-.48l-.48-.24-.24-1h-.24v-.48h-.24L9.6,491H9.36v-.72H9.12v-.48H8.88L8.4,488.4H8.16v-.72H7.92l-.24-1H7.44V486H7.2v-.48H7v-.72H6.72v-.48H6.48v-.72H6.24v-.48H6L5.52,481H5.28v-.72H5v-.72H4.8v-.72H4.56v-.72H4.32v-.72H4.08v-.72H3.84L3.6,475H3.36L3.12,473H2.88v-1H2.64v-1H2.4v-1H2.16V469H1.92v-1.2H1.68v-1.2c-.56-1.84-.66-4.36-1.2-6.24v-2.4H.24L0,448.32.24,439H.48V436.8H.72v-1.92H1V433.2H1.2v-1.44h.24l.24-2.64h.24v-1.2h.24l.24-2.16h.24v-1h.24v-1h.24v-1h.24v-.72H3.6v-1h.24v-.72h.24v-1h.24v-.72h.24v-.72H4.8v-.72H5v-.72h.24v-.72h.24l.24-1.44H6V414h.24l.24-1.44h.24v-.48H7v-.72H7.2l.24-1h.24v-.72h.24l.24-1H8.4V408h.24v-.48h.24l.24-1h.24v-.48H9.6v-.48h.24v-.48h.24v-.48h.24v-.48h.24v-.48h.24v-.48H11v-.48h.24v-.48h.24v-.48h.24v-.48H12v-.48l.48-.24.48-1.44.48-.24.24-1,.48-.24.24-1,.48-.24.24-1h.24l.24-.72.48-.24v-.48h.24l.24-.72.48-.24v-.48l.72-.48v-.48l.48-.24V391l.72-.48V390l.48-.24v-.48l1-.72v-.48l.72-.48v-.48l1-.72v-.48l1.2-1v-.48L25,383v-.48l2.64-2.4a45,45,0,0,1,5.28-5l1.44-1.68h.48l1-1.2h.48l.72-1h.48l.72-1h.48l.48-.72h.48l.48-.72h.48l.48-.72h.48l.24-.48.72-.24v-.24H43l.24-.48h.48l.24-.48h.48l.24-.48h.48l.24-.48h.48l.24-.48,1-.24.24-.48,1-.24.24-.48,1-.24.24-.48h.48v-.24h.48v-.24h.48v-.24h.48l.24-.48h.48v-.24h.48V361h.48v-.24h.48v-.24h.48v-.24h.48V360h.48v-.24l1.44-.48V359h.72v-.24h.48v-.24h.48v-.24l1-.24v-.24l4.32-1.44v-.24h.48v-.24h.72v-.24h.72v-.24h.72v-.24H67V355h.72v-.24h.72v-.24h.72v-.24h.72V354h.72v-.24l1.68-.24v-.24l1.92-.24v-.24h1v-.24h1v-.24l2.16-.24v-.24h1.2v-.24h1.44v-.24h1.2v-.24h1.44v-.24H85.2v-.24h1.92v-.24l12-.72v1.44c-.64.77-.14,2.69-.48,3.84H98.4v1.92h-.24v1.68h-.24v1.68h-.24v1.92c-.87,3-.81,6.87-1.68,9.84l-.24,3.36c-.51,1.72-.69,4-1.2,5.76v1.44c-.44,1.43-.76,3.38-1.2,4.8v1.2c-1.21,3.74-1.83,8.15-3.12,11.76v1H90v1h-.24v1h-.24v1h-.24v.72H89v1H88.8v1h-.24l-.24,1.68h-.24l-.48,2.64h-.24v1h-.24v1h-.24v.72h-.24v1H86.4v.72h-.24v.72h-.24v.72h-.24v1h-.24l-.24,1.44H85v.48h-.24l-.48,2.16H84A5.76,5.76,0,0,0,83.52,423.84Z" fill="none" fill-rule="evenodd"/></g><g id="Helheim" style="isolation:isolate"><path d="M80.64,243.84,78,243.12v-.24h-.48v-.24l-2.16-.48v-.24h-.48v-.24h-.72v-.24L73,241.2V241h-.48v-.24h-.72v-.24l-1-.24V240h-.72v-.24H69.6v-.24L68.16,239v-.24h-.72v-.24H67v-.24h-.48v-.24H66v-.24h-.48v-.24H65v-.24h-.48v-.24h-.48v-.24H63.6v-.24h-.48v-.24h-.48l-.24-.48h-.48v-.24h-.48v-.24H61v-.24h-.48l-.24-.48-1.44-.48-.24-.48-1-.24-.24-.48h-.48v-.24H56.4v-.24l-.72-.24-.24-.48-1-.24v-.24l-.72-.24-.24-.48H53l-.24-.48h-.48l-.48-.72h-.48v-.24l-.72-.24-.24-.48h-.48l-.48-.72H49l-.48-.72H48l-.48-.72H47l-.72-1h-.48l-.72-1h-.48l-1-1.2H43.2L42,221.76h-.48l-1.44-1.68-.72-.48v-.24h-.48L36.72,217l-2.64-2.4v-.48l-2.4-2.16v-.48l-1.44-1.2v-.48l-1.2-1v-.48l-1-.72v-.48l-1-.72v-.48l-.72-.48V205l-.72-.48V204l-.48-.24v-.48l-.72-.48v-.48h-.24L24,201.6l-.48-.24v-.48l-.72-.48v-.48l-.48-.24-.24-1-.48-.24V198l-.48-.24v-.48l-.48-.24v-.48H20.4v-.48l-.48-.24-.24-1-.48-.24-.24-1h-.24v-.48l-.48-.24v-.48H18V192h-.24v-.48h-.24V191h-.24v-.48l-.48-.24-.48-1.44h-.24v-.48h-.24v-.48H15.6l-.48-1.44h-.24v-.72h-.24v-.48H14.4l-.48-1.44h-.24v-.72h-.24l-.24-1H13v-.72h-.24l-.24-1h-.24v-.72H12v-.48h-.24l-.24-1.44h-.24v-.48H11v-.72H10.8v-.72h-.24v-.72h-.24v-.72h-.24v-.72H9.84V173H9.6v-.72H9.36v-.72H9.12v-.72H8.88l-.24-1.68H8.4l-.24-1.68H7.92l-.48-2.88H7.2l-.72-4.56c-.36-1.15-.61-2.9-1-4.08v-1.68H5.28V152.4H5v-2.16H4.8V147.6H4.56v-4.32H4.32v-2.4c0-2-.21-4.65.24-6.24v-4.08H4.8v-2.88H5v-2.16h.24V123.6h.24v-1.44h.24v-1.68H6v-1.2h.24v-1.44h.24v-1.2h.24v-1H7v-1.2H7.2v-1h.24v-1h.24v-1h.24v-1h.24l.24-1.92h.24l.48-2.4h.24v-.72H9.6v-.72h.24v-.72h.24v-.72h.24l.24-1.44h.24v-.48H11l.48-2.16h.24v-.48H12v-.72h.24v-.48h.24V97h.24L13,96h.24v-.72h.24V94.8h.24l.24-1h.24v-.72h.24v-.48h.24l.24-1h.24V91.2h.24v-.48h.24v-.48h.24v-.48h.24v-.48h.24V88.8h.24v-.48h.24v-.48H17v-.48h.24v-.48h.24V86.4h.24v-.48l.48-.24.48-1.44L19.2,84v-.48h.24V83l.48-.24.24-1,.48-.24v-.48h.24v-.48h.24l.24-.72.48-.24.24-1h.24l.24-.72.48-.24v-.48l.72-.48v-.48H24l.24-.72.48-.24v-.48l.72-.48v-.48l.72-.48V73l.72-.48V72l.72-.48V71l.48-.24v-.24l.48-.24v-.48l1-.72v-.48L31,67.44V67l1.68-1.44V65l3.6-3.36A53.87,53.87,0,0,1,43,55.44l1-1.2h.48l1-1.2h.48l.72-1H47l.48-.72H48l.48-.72H49l.48-.72h.48l.24-.48h.48l.48-.72h.48l.24-.48h.48l.24-.48H53l.24-.48h.48L54,46.8h.48l.24-.48h.48l.24-.48,1-.24.24-.48h.48l.24-.48h.48V44.4h.48l.24-.48L60,43.44l.24-.48h.48v-.24h.48v-.24h.48v-.24h.48l.24-.48h.48v-.24h.48v-.24h.48V41h.48V40.8h.48v-.24h.48v-.24h.48v-.24h.48v-.24l1.44-.48v-.24h.72v-.24h.48v-.24l1.44-.48v-.24H71v-.24h.48v-.24h.72V37.2l1-.24v-.24h.72v-.24h.48v-.24L75.84,36v-.24h.48v-.24L78.48,35V34.8h.72v-.24h.72v-.24h.72v-.24h.72v-.24h.72V33.6h.72v-.24h1v-.24h.72v-.24h1v-.24h1V32.4h1v-.24h1c2.45-.83,5.57-1.16,8.16-1.92h1.68V30h1.68v-.24h1.92v-.24l5.28-.24V29h6.24a5.34,5.34,0,0,1,2.4-.24V29h6.24v.24H125v.24h2.16v.24h2.16V30H131v.24h1.44v.24h1.44v.24l2.64.24v.24h1v.24l2.16.24v.24l2.16.24v.24l2.64.48v.24l1.68.24v.24h.72v.24h.72v.24h.72v.24H149v.24h.72v.24h.72V35l2.16.48c5,2.19,10.23,4.18,14.64,7h.48v.24h.48V43h.48v.24h.48l.24.48,1,.24.24.48,1,.24.24.48,1,.24.24.48h.48l.24.48h.48l.24.48,1,.24.24.48h.48l.48.72h.48v.24l.72.24.24.48h.48l.48.72h.48l.24.48h.48l.72,1h.48l.48.72h.48l.72,1h.48l.48.72,1.68,1.2v.24h-.48c-.64.54-1.27.19-2.16.48v.24h-1v.24h-1v.24h-1v.24h-1L165.84,61l-12.48,5.76-.24.48h-.48v.24h-.48v.24h-.48v.24h-.48l-.24.48-1.44.48-.24.48-1,.24-.24.48h-.48v.24h-.48l-.24.48h-.48l-.24.48h-.48l-.24.48H145l-.24.48h-.48v.24l-.72.24-.24.48h-.48v.24l-.72.24-.24.48h-.48l-.48.72h-.48l-.24.48h-.48l-.48.72h-.48L138,77l-.72.24-.24.48h-.48l-.72,1h-.48l-1,1.2h-.48l-1.2,1.44h-.48l-1.92,2.16h-.48l-1.68,1.92-4.32,4.08V90l-2.4,2.16v.48L120,93.84v.48l-1.2,1v.48l-1.2,1v.48l-1,.72v.48l-1,.72v.48l-.48.24-.24.72-1,.72v.48l-.72.48v.48l-.72.48v.48l-.72.48v.48l-.72.48-.24.72-.48.24v.48l-.48.24v.48l-.72.48v.48l-.48.24V109l-.72.48v.48l-.48.24v.48l-.48.24v.48l-.48.24v.48l-.48.24-.24,1h-.24l-.24.72-.48.24v.48l-.48.24-.24,1-.48.24-.24,1-.48.24-.24,1-.48.24-.24,1-.48.24v.48h-.24v.48H101v.48h-.24v.48l-.48.24v.48h-.24v.48h-.24v.48H99.6v.48h-.24l-.24,1-.48.24-.48,1.44h-.24V127h-.24v.48h-.24v.48H97.2l-.48,1.44h-.24l-.72,2.16h-.24L95,133H94.8v.72h-.24v.48h-.24l-.24,1h-.24v.72H93.6l-.24,1h-.24v.72h-.24V138h-.24v.72H92.4v.48h-.24l-.24,1.2h-.24v.72h-.24v.48H91.2v.72H91v.48h-.24l-.24,1.44h-.24v.48H90l-.24,1.44h-.24v.48h-.24l-.48,2.16h-.24v.48h-.24l-.48,2.16H87.6v.72h-.24v.48h-.24l-.48,2.16H86.4v.72h-.24v.72h-.24V157h-.24v.72h-.24v.48H85.2v.72H85v.72h-.24v.72h-.24V161c-1.16,2.91-2,6.38-3.12,9.36l-.48,2.88c-.77,2.26-1.21,5.09-1.92,7.44v1.44c-.39,1.31-.57,3.22-1,4.56v1.92h-.24V191h-.24v2.88h-.24v5H77a15.35,15.35,0,0,0,.24,5c.41,1.45-.13,3.73.24,5l.72,11.76h.24v2.4h.24v2.64H79v2.4h.24v2.64h.24v2.4h.24v2.16h.24v2.16h.24v1.92A16.64,16.64,0,0,1,80.64,243.84Z" fill="none" fill-rule="evenodd"/></g><g id="Svartheim" style="isolation:isolate"><path d="M283,70.8l.72-2.4h.24v-.48h.24V67.2h.24v-.48h.24V66h.24v-.48h.24V65h.24v-.48h.24v-.72h.24l.48-1.44h.24v-.48h.24v-.48H287V61h.24v-.48h.24V60h.24v-.48H288V59l.48-.24v-.48h.24v-.48H289l.24-1,.48-.24.48-1.44h.24l.24-.72.48-.24.24-1,.48-.24v-.48h.24l.24-.72.48-.24v-.48H293l.24-.72.48-.24v-.48l.72-.48v-.48l.48-.24V48l.72-.48V47l.72-.48v-.48l.72-.48v-.48l.48-.24v-.24l.48-.24v-.48l1.2-1v-.48l1.44-1.2V40.8l.48-.24v-.24l2.16-1.92v-.48l1.44-1.2,2.4-2.64h.48l2.4-2.64h.48l1.2-1.44h.48l1-1.2h.48l.72-1h.48l.72-1h.48l.48-.72H317l.48-.72H318l.48-.72H319l.24-.48h.48l.48-.72h.48l.24-.48h.48l.24-.48h.48l.24-.48h.48l.24-.48h.48l.24-.48h.48l.24-.48H325l.24-.48,1-.24.24-.48.72-.24V19l1.44-.48.24-.48,1-.24.24-.48h.48V17H331V16.8h.48v-.24h.48l.24-.48,1-.24V15.6h.48v-.24h.48v-.24h.48v-.24H335v-.24h.48V14.4l1-.24v-.24H337v-.24h.48v-.24h.48V13.2l1.44-.48v-.24h.72v-.24h.48V12H341v-.24l1-.24v-.24h.72V11l1-.24v-.24h.72v-.24h.48v-.24h.72V9.84h.48V9.6l1.2-.24V9.12l1.44-.24V8.64h.48V8.4h.72V8.16h.72V7.92h.72V7.68h.72c2.61-1,5.68-1.91,8.4-2.88l14.4-3.12,7-.72V.72h2.4V.48h2.88V.24h3.6C393.3-.48,398,0,401,0a23.45,23.45,0,0,1,5.28.24h2.4l4.08.24V.72l7.92.72c1.25.37,3.08.58,4.32,1h1.2v.24l2.4.24v.24h1v.24h1.2V3.6h1v.24h1v.24h1.2v.24h.72v.24l2.88.48v.24l1.68.24v.24h.72V6h.72v.24h1v.24h.72v.24H443V7h.72V7.2h.72v.24l1.44.24v.24h.48v.24l2.16.48v.24H449v.24h.72v.24h.48V9.6l1.44.24v.24l1,.24v.24h.72v.24h.48V11h.72v.24l1,.24v.24H456V12h.72v.24h.48v.24l1,.24V13l1,.24v.24h.48v.24h.48v.24h.48v.24H461v.24l1,.24v.24l1,.24v.24h.48v.24h.48v.24h.48v.24h.48v.24l1,.24.24.48,1.44.48.24.48,1,.24.24.48,1,.24.24.48,1,.24.24.48h.48v.24h.48l.24.48H473l.24.48h.48v.24l.72.24.24.48h.48v.24l.72.24.24.48h.48l.48.72h.48l.24.48h.48l.48.72h.48l.48.72h.48l.48.72h.48l.72,1h.48l.72,1h.48l.72,1h.48L486,31h.48l1.92,2.16h.48l2.4,2.64,3.6,3.36v.48l1.92,1.68v.48l1.44,1.2v.48l.72.48,1.2,1.68h-1.44c-.58-.53-1.51-.21-2.4-.48a14.06,14.06,0,0,0-7.2,0h-1.2v.24l-1.44.24v.24H486v.24h-.72l-.24.48h-.48l-.24.48h-.48l-.24.48h-.48l-.72,1h-.48l-1.44,1.68H480l-2.4,2.64h-.48L475.2,55l-1,.72v.48l-1.68,1.44v.48l-1.2,1v.48l-1,.72v.48l-.72.48v.48l-1,.72v.48l-.72.48v.48l-.72.48v.48l-.72.48v.48l-.72.48v.48l-.72.48v.48l-.72.48v.48l-.72.48v.48l-1,.72v.48l-.72.48v.48l-.72.48v.48l-1,.72v.48l-.72.48v.48l-1,.72-.24.72-.48.24V77l-1,.72v.48l-.72.48v.48l-.72.48v.48l-.72.48v.48l-.72.48v.48l-.72.48V83l-.72.48-.24.72-.48.24V85l-.48.24v.48l-.72.48v.48l-.48.24v.48l-.72.48v.48l-.48.24V89l-.72.48V90l-.48.24v.48l-.72.48v.48h-.24l-.24.72-.48.24v.48l-.72.48v.48l-.48.24v.48l-.72.48v.48l-.48.24v.48l-.48.24-.24.72-.72.48v.48l-.72.48v.48l-.72.48v.48l-.72.48v.48l-.72.48v.48l-1,.72v.48l-.72.48v.48l-1,.72v.48l-1,.72v.48l-1,.72V108l-1.2,1v.48l-1.44,1.2v.48l-2.4,2.16L428.4,115h-.48l-.72,1h-.48l-.48.72-.72.24-.24.48h-.48l-.24.48h-.48l-.48.72-1,.24-.24.48-.72.24v.24l-1,.24-.24.48H420v.24h-.48V121H419v.24h-.48v.24h-.48v.24h-.48v.24h-.48v.24h-.48v.24h-.48v.24l-1.44.48v.24H414v.24h-.48v.24l-1.44.24v.24h-.48v.24h-.72v.24h-.72V125h-.72v.24l-1.68.24v.24l-7.44,1.44-6,.24c-1.93.53-10.08.55-12,0h-2.4v-.24h-1.68c-1.13-.33-2.75-.62-3.84-1h-1.2l-7.44-2.4v-.24h-.48v-.24h-.72v-.24h-.48v-.24h-.72v-.24l-1-.24v-.24h-.72v-.24h-.48v-.24l-1-.24v-.24h-.72V121H359v-.24h-.48v-.24l-1.44-.48v-.24h-.72v-.24h-.48v-.24l-1-.24v-.24h-.48v-.24H354v-.24h-.48v-.24H353v-.24h-.48v-.24l-1.44-.48v-.24l-1-.24v-.24l-1-.24v-.24h-.48v-.24h-.48v-.24h-.48v-.24h-.48V115l-1-.24-.24-.48h-.48V114h-.48v-.24h-.48v-.24h-.48l-.24-.48-1.44-.48-.24-.48-1.44-.48-.24-.48-1-.24-.24-.48-1-.24-.24-.48-1-.24L337,109l-1-.24-.24-.48-1-.24-.24-.48h-.48l-.24-.48h-.48l-.24-.48-1-.24-.24-.48h-.48l-.24-.48h-.48v-.24l-.72-.24-.24-.48h-.48l-.24-.48h-.48l-.24-.48h-.48l-.24-.48h-.48l-.24-.48h-.48v-.24l-.72-.24-.24-.48H325l-.48-.72H324v-.24l-.72-.24-.24-.48h-.48l-.48-.72h-.48v-.24l-.72-.24-.24-.48h-.48l-.48-.72h-.48L319,97h-.48l-.24-.48-.72-.24-.48-.72h-.48l-.24-.48h-.48l-.24-.48-.72-.24-.48-.72h-.48l-.48-.72H313l-.48-.72H312l-.48-.72H311l-.48-.72h-.48l-.24-.48-.72-.24-.48-.72h-.48l-.72-1H307l-.48-.72H306l-.72-1h-.48l-.72-1h-.48l-.24-.48-.72-.24-.72-1h-.48l-.48-.72-.72-.24-.24-.48h-.48l-.48-.72h-.48l-.48-.72h-.48l-.48-.72h-.48l-.48-.72h-.48L295.2,79h-.48l-.48-.72h-.48l-.48-.72h-.48l-.48-.72h-.48l-.24-.48h-.48l-.48-.72h-.48l-.24-.48-.72-.24v-.24h-.48l-.24-.48H288l-.24-.48h-.48L287,73.2h-.48l-.24-.48h-.48C285,72.12,284.15,71.11,283,70.8Z" fill="none" fill-rule="evenodd"/></g><g id="Shadow"><image id="Layer_1_Image" data-name="Layer 1 Image" width="2231" height="2353" transform="scale(0.24)" xlink:href="campingSpotsSVG22.png"/></g></svg>