<svg xmlns="http://www.w3.org/2000/svg" viewBox="0 0 535.29 564.65"><defs><style>.cls-1{fill:#f99175;}.cls-2{fill:none;}.cls-2,.cls-3{stroke:#000;}.cls-10,.cls-11,.cls-2,.cls-3,.cls-9{stroke-miterlimit:10;}.cls-4{fill:#1c1c1e;}.cls-5{fill:#e57055;}.cls-6{fill:#f9b5a5;}.cls-7{fill:#e5796e;}.cls-8{fill:#d35742;}.cls-9{fill:#f26a3c;stroke:#f26a3c;}.cls-10{fill:#d15e3f;stroke:#d15e3f;}.cls-11{fill:#bf4e34;stroke:#bf4e34;}</style></defs><g id="muspelheim"><ellipse class="cls-1" cx="98.72" cy="448.5" rx="98.72" ry="98.5"/><path d="M34.48,490.53l-11.37-.26,0-1.28,8.71-4.71,0,.69-8.48-5,0-1.28,11.37.24,0,1.5-8.91-.19v-.36l7.44,4.48v.72l-7.64,4.17v-.39l8.92.2Z"/><path d="M35,472.36a4.05,4.05,0,0,1-.44,1.86,2.91,2.91,0,0,1-1.28,1.22,4.47,4.47,0,0,1-2.11.4l-4.95-.12,0-1.49,4.78.1a2.71,2.71,0,0,0,1.91-.54,2.14,2.14,0,0,0,.67-1.63,2.74,2.74,0,0,0-.3-1.37,2.23,2.23,0,0,0-1-.91,3.54,3.54,0,0,0-1.54-.34l-4.45-.1,0-1.5,8.61.19,0,1.42-2.32-.05.62-.22a2.91,2.91,0,0,1,1.3,1.25A3.42,3.42,0,0,1,35,472.36Z"/><path d="M35.2,462.91a6.65,6.65,0,0,1-.34,1.95,4.6,4.6,0,0,1-.75,1.44l-1.22-.65a5.1,5.1,0,0,0,.67-1.3,5,5,0,0,0,.29-1.58,2.77,2.77,0,0,0-.27-1.52,1,1,0,0,0-.85-.48.8.8,0,0,0-.64.27,1.78,1.78,0,0,0-.36.73c-.08.31-.16.65-.23,1s-.15.75-.25,1.12a4.63,4.63,0,0,1-.41,1,2,2,0,0,1-.72.73,2.23,2.23,0,0,1-1.2.26,2.18,2.18,0,0,1-1.35-.46,2.58,2.58,0,0,1-.88-1.21,4.73,4.73,0,0,1-.27-1.84,6.7,6.7,0,0,1,.24-1.64,3.84,3.84,0,0,1,.6-1.35l1.22.66a3.76,3.76,0,0,0-.56,1.16,5.12,5.12,0,0,0-.17,1.22,2.52,2.52,0,0,0,.3,1.47,1,1,0,0,0,.84.5.81.81,0,0,0,.68-.27,2.06,2.06,0,0,0,.38-.74,6.39,6.39,0,0,0,.24-1c.07-.37.16-.74.26-1.12a4.34,4.34,0,0,1,.4-1,2,2,0,0,1,.7-.73,2,2,0,0,1,1.18-.26,2.15,2.15,0,0,1,1.34.46,2.87,2.87,0,0,1,.85,1.25A5.33,5.33,0,0,1,35.2,462.91Z"/><path d="M38.37,457.53l-11.76-.27,0-1.43,2.32.05,2,.14,2-.11,5.44.12Zm-2.95-4.46a3.74,3.74,0,0,1-.54,1.87,3.49,3.49,0,0,1-1.5,1.33,5.32,5.32,0,0,1-2.45.45,5.24,5.24,0,0,1-2.42-.55,3.39,3.39,0,0,1-1.43-1.37,3.78,3.78,0,0,1-.45-1.92,4.22,4.22,0,0,1,.6-2.15,4,4,0,0,1,1.57-1.44,4.63,4.63,0,0,1,2.31-.5,4.73,4.73,0,0,1,2.3.6,4,4,0,0,1,1.5,1.52A4.07,4.07,0,0,1,35.42,453.07Zm-1.37.1a2.79,2.79,0,0,0-.34-1.44,2.62,2.62,0,0,0-1-1,3.4,3.4,0,0,0-1.59-.4,3.16,3.16,0,0,0-1.61.33,2.65,2.65,0,0,0-1.07,1,2.88,2.88,0,0,0-.07,2.84,2.66,2.66,0,0,0,1,1,3.28,3.28,0,0,0,1.59.41,3.46,3.46,0,0,0,1.61-.33,2.64,2.64,0,0,0,1.49-2.38Z"/><path d="M35.64,443.13a4.58,4.58,0,0,1-.62,2.32A4,4,0,0,1,33.43,447a5,5,0,0,1-4.55-.09,4,4,0,0,1-1.52-1.52,4,4,0,0,1-.51-2.14,4.1,4.1,0,0,1,.6-2.11A3.93,3.93,0,0,1,29,439.71a5,5,0,0,1,2.35-.47l.22,0a1,1,0,0,1,.25,0l-.16,7-1.12,0,.14-6.26.37.62a2.89,2.89,0,0,0-1.48.29,2.58,2.58,0,0,0-1,.92,2.76,2.76,0,0,0-.4,1.39,2.62,2.62,0,0,0,.34,1.4,2.52,2.52,0,0,0,1,1A3.15,3.15,0,0,0,31,446h.26a3.15,3.15,0,0,0,1.54-.35,2.7,2.7,0,0,0,1.07-1.05,3.18,3.18,0,0,0,.41-1.57,3.47,3.47,0,0,0-.23-1.34,2.92,2.92,0,0,0-.76-1.07l1-.8a3.62,3.62,0,0,1,1,1.42A4.71,4.71,0,0,1,35.64,443.13Z"/><path d="M35.68,437.26l-12-.27,0-1.5,12.05.28Z"/><path d="M27.19,428.3a3.75,3.75,0,0,1,.44-1.78,2.88,2.88,0,0,1,1.26-1.18A4.48,4.48,0,0,1,31,425l5,.11,0,1.5-4.78-.11a2.67,2.67,0,0,0-1.89.54,2.12,2.12,0,0,0-.67,1.63,2.73,2.73,0,0,0,.29,1.4,2.24,2.24,0,0,0,.94.94,3.44,3.44,0,0,0,1.57.35l4.43.1,0,1.5-12.06-.27,0-1.5,5.76.13-.62.28a2.9,2.9,0,0,1-1.29-1.28A3.92,3.92,0,0,1,27.19,428.3Z"/><path d="M36.2,418.6a4.68,4.68,0,0,1-.62,2.32,4.12,4.12,0,0,1-1.6,1.53,4.63,4.63,0,0,1-2.29.5,4.77,4.77,0,0,1-2.26-.59,3.87,3.87,0,0,1-1.51-1.52,4.17,4.17,0,0,1-.52-2.14,4.1,4.1,0,0,1,.6-2.11,3.82,3.82,0,0,1,1.59-1.41,5,5,0,0,1,2.34-.47h.23l.24,0-.16,7-1.12,0,.14-6.26.38.61a3,3,0,0,0-1.49.3,2.55,2.55,0,0,0-1.43,2.31,2.74,2.74,0,0,0,.33,1.4,2.59,2.59,0,0,0,1,1,3.33,3.33,0,0,0,1.5.38h.26a3,3,0,0,0,1.54-.34,2.64,2.64,0,0,0,1.07-1.05,3.18,3.18,0,0,0,.41-1.57,3.1,3.1,0,0,0-.23-1.34,2.9,2.9,0,0,0-.75-1.07l1-.8a3.52,3.52,0,0,1,1,1.42A4.68,4.68,0,0,1,36.2,418.6Z"/><path d="M26,411.75a1,1,0,0,1-.31.72.93.93,0,0,1-.72.27,1,1,0,0,1-.72-.3,1,1,0,0,1-.28-.74,1,1,0,0,1,.3-.71,1,1,0,0,1,.72-.28,1.07,1.07,0,0,1,.73.3A.93.93,0,0,1,26,411.75Zm10.25,1-8.61-.19,0-1.5,8.61.19Z"/><path d="M27.87,397.83a3.78,3.78,0,0,1,.45-1.75,2.87,2.87,0,0,1,1.26-1.17,4.58,4.58,0,0,1,2.11-.38l4.95.11,0,1.5L31.83,396a2.87,2.87,0,0,0-1.9.52,2,2,0,0,0-.66,1.57,2.44,2.44,0,0,0,.29,1.31,2.13,2.13,0,0,0,.94.89,3.61,3.61,0,0,0,1.57.34l4.43.1,0,1.5-4.78-.11a2.77,2.77,0,0,0-1.89.51,2,2,0,0,0-.67,1.57,2.56,2.56,0,0,0,.29,1.31,2.25,2.25,0,0,0,.94.89,3.61,3.61,0,0,0,1.57.35l4.43.1,0,1.5-8.61-.2,0-1.43,2.29.05-.59.22a2.87,2.87,0,0,1-1.28-1.23,3.58,3.58,0,0,1-.43-1.9,3.44,3.44,0,0,1,.65-2,2.83,2.83,0,0,1,1.87-1.08l-.27.6A3.1,3.1,0,0,1,28.43,400,4,4,0,0,1,27.87,397.83Z"/><path class="cls-2" d="M80.49,450.12a1.46,1.46,0,0,1-1-.72c-.1-.21-.06-.34,0-1.26a5.16,5.16,0,0,0,0-1.26,3.11,3.11,0,0,0-.53-1,5.39,5.39,0,0,0-1.3-1.22"/><line class="cls-2" x1="80.87" y1="446.09" x2="77.66" y2="444.79"/><path class="cls-2" d="M62.57,439.32l2.93,5.45,12.44,0a6.41,6.41,0,0,0,3.4-4.37"/><line class="cls-2" x1="60.96" y1="444.65" x2="65.5" y2="444.77"/><line class="cls-2" x1="62.67" y1="451.39" x2="66.4" y2="444.77"/><line class="cls-2" x1="61.34" y1="448.91" x2="65.25" y2="446.82"/><ellipse class="cls-3" cx="61.43" cy="438.98" rx="0.84" ry="1.41" transform="matrix(0.53, -0.85, 0.85, 0.53, -344.06, 259.95)"/><ellipse class="cls-3" cx="63.14" cy="442.52" rx="1.09" ry="0.65" transform="translate(-140.26 44.48) rotate(-18.95)"/><ellipse class="cls-3" cx="59.61" cy="444.33" rx="0.85" ry="1.41" transform="translate(-387.1 406.49) rotate(-77.52)"/><ellipse class="cls-3" cx="60.85" cy="446.54" rx="1.85" ry="0.54" transform="translate(-326.09 215.5) rotate(-51.4)"/><ellipse class="cls-3" cx="60.68" cy="449.37" rx="1.41" ry="0.85" transform="translate(-205.23 82.07) rotate(-28.21)"/><ellipse class="cls-3" cx="62.5" cy="451.58" rx="1.41" ry="0.85" transform="translate(-345.9 249) rotate(-55.74)"/><polygon class="cls-4" points="84.08 447.17 55.14 437.31 84.03 435.57 84.08 447.17"/><polygon class="cls-4" points="54.46 434.05 82.83 423.37 84.08 435.44 54.46 434.05"/><polygon class="cls-4" points="81.55 471.3 60.38 457.56 81.38 457.3 81.55 471.3"/><polygon class="cls-4" points="60.06 455.5 82.65 442.6 81.65 456.99 60.06 455.5"/><polygon class="cls-4" points="58.08 459.85 50.09 460.12 49.82 452.12 54.98 456.95 58.81 451.82 58.08 459.85"/><path class="cls-2" d="M76.73,472.64a2,2,0,0,0-1.38,1c-.13.29-.08.46,0,1.7a6.25,6.25,0,0,1,0,1.69,3.8,3.8,0,0,1-.71,1.34A6.74,6.74,0,0,1,72.84,480"/><line class="cls-2" x1="77.29" y1="478.07" x2="72.97" y2="479.85"/><path class="cls-2" d="M52.7,487.37,56.58,480l16.78-.15a8.56,8.56,0,0,1,3,2.44A8.4,8.4,0,0,1,78,485.71"/><line class="cls-2" x1="50.48" y1="480.21" x2="56.58" y2="480"/><line class="cls-2" x1="52.71" y1="471.11" x2="57.8" y2="479.99"/><line class="cls-2" x1="50.94" y1="474.46" x2="56.22" y2="477.24"/><ellipse class="cls-3" cx="51.16" cy="487.85" rx="1.89" ry="1.14" transform="matrix(0.85, -0.53, 0.53, 0.85, -252.17, 102.36)"/><ellipse class="cls-3" cx="53.43" cy="483.06" rx="0.88" ry="1.46" transform="translate(-421.58 380.26) rotate(-71.48)"/><ellipse class="cls-3" cx="48.65" cy="480.65" rx="1.9" ry="1.14" transform="translate(-106.13 23.01) rotate(-12.91)"/><ellipse class="cls-3" cx="50.3" cy="477.66" rx="0.72" ry="2.49" transform="translate(-289.54 138.25) rotate(-39.03)"/><ellipse class="cls-3" cx="50.05" cy="473.85" rx="1.14" ry="1.9" transform="translate(-392.49 297.21) rotate(-62.21)"/><ellipse class="cls-3" cx="52.48" cy="470.85" rx="1.14" ry="1.9" transform="translate(-258.64 113.56) rotate(-34.69)"/><polygon class="cls-4" points="85.61 479.87 63.61 472.01 85.25 472.52 85.61 479.87"/><polygon class="cls-4" points="63.66 468.39 83.82 463.81 85.22 471.86 63.66 468.39"/><path class="cls-2" d="M73.94,416.34a1.19,1.19,0,0,1-.89-.54c-.1-.17-.07-.28-.1-1a4.19,4.19,0,0,0-.1-1,2.49,2.49,0,0,0-.5-.79,4.08,4.08,0,0,0-1.14-.93"/><line class="cls-2" x1="74.03" y1="412.99" x2="71.3" y2="412.1"/><path class="cls-2" d="M58.52,408.43l2.73,4.34,10.28-.69a5.26,5.26,0,0,0,2.56-3.81"/><line class="cls-2" x1="57.5" y1="412.93" x2="61.25" y2="412.77"/><line class="cls-2" x1="59.29" y1="418.4" x2="62" y2="412.72"/><line class="cls-2" x1="58.05" y1="416.43" x2="61.16" y2="414.47"/><ellipse class="cls-3" cx="57.56" cy="408.21" rx="0.7" ry="1.16" transform="translate(-330.23 268.32) rotate(-62.14)"/><ellipse class="cls-3" cx="59.18" cy="411.04" rx="0.9" ry="0.54" transform="translate(-155.11 55.32) rotate(-22.87)"/><ellipse class="cls-3" cx="56.36" cy="412.74" rx="0.7" ry="1.17" transform="translate(-360.17 407.06) rotate(-81.44)"/><ellipse class="cls-3" cx="57.51" cy="414.49" rx="1.53" ry="0.45" transform="matrix(0.57, -0.82, 0.82, 0.57, -316.08, 225.97)"/><ellipse class="cls-3" cx="57.53" cy="416.84" rx="1.17" ry="0.7" transform="translate(-212.92 94.47) rotate(-32.14)"/><ellipse class="cls-3" cx="59.16" cy="418.56" rx="1.17" ry="0.7" transform="translate(-331.96 258.21) rotate(-59.66)"/><polygon class="cls-4" points="77.61 429.01 56.51 423.79 76.87 420.8 77.61 429.01"/><polygon class="cls-4" points="55.83 421.52 75.28 412.24 76.9 420.71 55.83 421.52"/><polygon class="cls-4" points="50.01 425.94 55.52 425.27 54.86 419.76 51.83 423.62 48.66 420.51 50.01 425.94"/><polygon class="cls-4" points="84.79 496.26 59.92 487.79 84.75 486.3 84.79 496.26"/><polygon class="cls-4" points="59.33 484.99 83.71 475.82 84.78 486.19 59.33 484.99"/></g><g id="helheim"><circle class="cls-5" cx="114.44" cy="139" r="110"/><path d="M32.61,121.19l-.9,1.28-9.28-6.57.9-1.28ZM27,109.5l.9-1.27,9.29,6.56-.9,1.28ZM32.18,113l-3.8,5.36-1.15-.81,3.8-5.37Z"/><path d="M41.11,109.35a4.64,4.64,0,0,1-1.81,1.57,4,4,0,0,1-2.17.38,4.53,4.53,0,0,1-2.18-.87,4.68,4.68,0,0,1-1.55-1.75,4,4,0,0,1-.41-2.11,4.31,4.31,0,0,1,2.45-3.47,3.84,3.84,0,0,1,2.1-.29,5.13,5.13,0,0,1,2.21.92l.18.14.18.16-4.06,5.75-.92-.65L38.75,104l0,.72a3,3,0,0,0-1.4-.58,2.59,2.59,0,0,0-1.38.18,2.7,2.7,0,0,0-1.1.93,2.74,2.74,0,0,0-.51,1.35,2.67,2.67,0,0,0,.29,1.37,3.18,3.18,0,0,0,1,1.14l.21.15a3,3,0,0,0,1.48.58,2.69,2.69,0,0,0,1.47-.27,3.47,3.47,0,0,0,1.77-2.31,3.05,3.05,0,0,0,0-1.31l1.3-.09a3.78,3.78,0,0,1,0,1.74A4.72,4.72,0,0,1,41.11,109.35Z"/><path d="M44.42,104.5l-9.84-7,.87-1.23,9.84,7Z"/><path d="M42.39,92.32a3.78,3.78,0,0,1,1.37-1.23,2.87,2.87,0,0,1,1.7-.27,4.44,4.44,0,0,1,2,.85l4,2.86-.86,1.23L46.71,93a2.68,2.68,0,0,0-1.88-.61,2.12,2.12,0,0,0-1.47,1,2.86,2.86,0,0,0-.53,1.32,2.13,2.13,0,0,0,.25,1.3,3.62,3.62,0,0,0,1.1,1.17l3.62,2.56-.86,1.22L37.1,94,38,92.76l4.71,3.33L42,96a2.94,2.94,0,0,1-.35-1.78A4,4,0,0,1,42.39,92.32Z"/><path d="M55.28,89.31a4.59,4.59,0,0,1-1.81,1.58,4,4,0,0,1-2.17.37,4.55,4.55,0,0,1-2.18-.86,4.64,4.64,0,0,1-1.54-1.75,4,4,0,0,1-.42-2.11,4.06,4.06,0,0,1,.78-2.06,4.1,4.1,0,0,1,1.67-1.42,3.94,3.94,0,0,1,2.1-.28,5,5,0,0,1,2.21.92l.18.14.19.16-4.07,5.75-.91-.65L52.92,84l0,.72a2.94,2.94,0,0,0-1.4-.58,2.45,2.45,0,0,0-1.37.18,2.72,2.72,0,0,0-1.11.93,2.57,2.57,0,0,0-.5,1.34A2.53,2.53,0,0,0,48.79,88a3.2,3.2,0,0,0,1,1.15l.21.15a3.17,3.17,0,0,0,1.48.58A2.69,2.69,0,0,0,53,89.56a3.33,3.33,0,0,0,1.22-1.07,3.43,3.43,0,0,0,.56-1.24,2.9,2.9,0,0,0,0-1.31l1.3-.1a3.65,3.65,0,0,1,0,1.74A4.64,4.64,0,0,1,55.28,89.31Z"/><path d="M50.64,77.92a1,1,0,0,1-.65.43,1,1,0,0,1-.75-.18,1,1,0,0,1-.43-.66,1,1,0,0,1,.18-.76,1,1,0,0,1,.65-.43,1,1,0,0,1,.74.17,1,1,0,0,1,.44.66A.91.91,0,0,1,50.64,77.92Zm8,6.55-7-5,.87-1.22,7,5Z"/><path d="M60,67.44a3.81,3.81,0,0,1,1.35-1.2A2.87,2.87,0,0,1,63,66a4.68,4.68,0,0,1,2,.86l4,2.87-.86,1.22-3.9-2.76a2.78,2.78,0,0,0-1.87-.63,2,2,0,0,0-1.42.92,2.6,2.6,0,0,0-.5,1.26A2.21,2.21,0,0,0,60.78,71a3.55,3.55,0,0,0,1.11,1.16l3.62,2.56-.87,1.23-3.9-2.76a2.73,2.73,0,0,0-1.85-.64,2,2,0,0,0-1.44.93A2.55,2.55,0,0,0,57,74.69,2.15,2.15,0,0,0,57.25,76a3.62,3.62,0,0,0,1.1,1.17L62,79.69l-.87,1.22-7-5,.83-1.17,1.87,1.32-.61-.15a2.86,2.86,0,0,1-.38-1.74,3.65,3.65,0,0,1,.7-1.81,3.43,3.43,0,0,1,1.68-1.32,2.93,2.93,0,0,1,2.16.15l-.57.34a3.25,3.25,0,0,1-.54-2A3.93,3.93,0,0,1,60,67.44Z"/><path class="cls-2" d="M88.06,124.76a1.46,1.46,0,0,1-.4-1.19c0-.23.15-.31.71-1a4.91,4.91,0,0,0,.71-1,3,3,0,0,0,.15-1.12,5.34,5.34,0,0,0-.33-1.74"/><line class="cls-2" x1="90.75" y1="121.73" x2="88.91" y2="118.78"/><path class="cls-2" d="M79.91,105.5l-.83,6.12L89.14,119a6.38,6.38,0,0,0,5.32-1.54"/><line class="cls-2" x1="75.48" y1="108.86" x2="79.08" y2="111.62"/><line class="cls-2" x1="72.9" y1="115.32" x2="79.81" y2="112.16"/><line class="cls-2" x1="73.28" y1="112.53" x2="77.67" y2="113.13"/><ellipse class="cls-3" cx="79.19" cy="104.55" rx="0.84" ry="1.41" transform="translate(-33.67 37.73) rotate(-22.23)"/><ellipse class="cls-3" cx="78.49" cy="108.42" rx="0.65" ry="1.09" transform="translate(-48.16 151.71) rotate(-72.97)"/><ellipse class="cls-3" cx="74.57" cy="107.81" rx="0.85" ry="1.41" transform="translate(-52.73 76.56) rotate(-41.54)"/><ellipse class="cls-3" cx="74.28" cy="110.32" rx="1.85" ry="0.54" transform="translate(-26.66 23.72) rotate(-15.42)"/><ellipse class="cls-3" cx="72.48" cy="112.52" rx="0.85" ry="1.41" transform="translate(-48.8 169.12) rotate(-82.23)"/><ellipse class="cls-3" cx="72.66" cy="115.38" rx="1.41" ry="0.85" transform="translate(-34.72 31.35) rotate(-19.76)"/><polygon class="cls-4" points="92.71 124.48 75.08 99.5 99.48 115.07 92.71 124.48"/><polygon class="cls-4" points="76.44 96.46 105.67 104.5 99.59 115 76.44 96.46"/><polygon class="cls-4" points="76.48 142.53 67.43 118.97 84.57 131.1 76.48 142.53"/><polygon class="cls-4" points="68.38 117.11 94.23 119.94 84.97 131.01 68.38 117.11"/><polygon class="cls-4" points="64.22 119.47 57.59 114.99 62.07 108.36 63.41 115.31 69.53 113.4 64.22 119.47"/><path class="cls-2" d="M71.79,140.77a2,2,0,0,0-1.69,0c-.27.16-.33.33-1,1.35a6,6,0,0,1-1,1.35,3.83,3.83,0,0,1-1.36.67,6.8,6.8,0,0,1-2.37.33"/><line class="cls-2" x1="69.06" y1="145.5" x2="64.51" y2="144.4"/><path class="cls-2" d="M43.69,138.58l7.47-3.69,13.67,9.74a8.7,8.7,0,0,1,1,3.73,8.61,8.61,0,0,1-.7,3.72"/><line class="cls-2" x1="46.1" y1="131.48" x2="51.16" y2="134.89"/><line class="cls-2" x1="53.25" y1="125.42" x2="52.16" y2="135.6"/><line class="cls-2" x1="49.86" y1="127.1" x2="52.5" y2="132.45"/><ellipse class="cls-3" cx="42.17" cy="138.06" rx="1.14" ry="1.89" transform="translate(-98.36 171.06) rotate(-86.23)"/><ellipse class="cls-3" cx="46.82" cy="135.52" rx="0.88" ry="1.46" transform="matrix(0.81, -0.58, 0.58, 0.81, -69.99, 52.37)"/><ellipse class="cls-3" cx="44.37" cy="130.77" rx="1.14" ry="1.9" transform="translate(-93.33 120.33) rotate(-66.93)"/><ellipse class="cls-3" cx="47.45" cy="129.31" rx="0.72" ry="2.49" transform="translate(-6.8 2.7) rotate(-3.04)"/><ellipse class="cls-3" cx="49.49" cy="126.08" rx="1.14" ry="1.9" transform="translate(-50.63 34.86) rotate(-26.23)"/><ellipse class="cls-3" cx="53.22" cy="125.09" rx="1.9" ry="1.14" transform="translate(-73.03 175.47) rotate(-88.71)"/><polygon class="cls-4" points="74.73 151.85 61.54 132.56 78.76 145.69 74.73 151.85"/><polygon class="cls-4" points="63.72 129.66 82.72 137.8 79.12 145.14 63.72 129.66"/><path class="cls-2" d="M102.61,93.58a1.21,1.21,0,0,1-.4-1c0-.19.1-.27.52-.9a3.75,3.75,0,0,0,.53-.9,2.29,2.29,0,0,0,.06-.93,4,4,0,0,0-.37-1.42"/><line class="cls-2" x1="104.65" y1="90.92" x2="102.97" y2="88.59"/><path class="cls-2" d="M94.78,78.12l-.34,5.11,8.73,5.49a5.46,5.46,0,0,0,2.35-.31,5.31,5.31,0,0,0,2-1.27"/><line class="cls-2" x1="91.31" y1="81.16" x2="94.44" y2="83.23"/><line class="cls-2" x1="89.55" y1="86.64" x2="95.07" y2="83.63"/><line class="cls-2" x1="89.7" y1="84.31" x2="93.37" y2="84.56"/><ellipse class="cls-3" cx="94.13" cy="77.38" rx="0.7" ry="1.16" transform="translate(-24.47 49.42) rotate(-26.16)"/><ellipse class="cls-3" cx="93.78" cy="80.62" rx="0.54" ry="0.9" transform="translate(-6.01 153.67) rotate(-76.89)"/><ellipse class="cls-3" cx="90.5" cy="80.34" rx="0.7" ry="1.17" transform="translate(-30.24 88.5) rotate(-45.46)"/><ellipse class="cls-3" cx="90.4" cy="82.43" rx="1.53" ry="0.45" transform="translate(-22.2 34.6) rotate(-19.34)"/><ellipse class="cls-3" cx="89.04" cy="84.34" rx="0.7" ry="1.17" transform="translate(-1.08 167.53) rotate(-86.16)"/><ellipse class="cls-3" cx="89.35" cy="86.7" rx="1.17" ry="0.7" transform="translate(-27.3 43.19) rotate(-23.68)"/><polygon class="cls-4" points="98.14 105.99 84.13 89.37 102.36 98.92 98.14 105.99"/><polygon class="cls-4" points="84.91 87.13 106.11 91.05 102.44 98.85 84.91 87.13"/><polygon class="cls-4" points="77.61 87.29 82.46 89.99 85.16 85.14 80.44 86.48 79.7 82.1 77.61 87.29"/><polygon class="cls-4" points="64.44 164.63 49.29 143.16 70.25 156.54 64.44 164.63"/><polygon class="cls-4" points="50.46 140.55 75.57 147.45 70.35 156.47 50.46 140.55"/></g><g id="alfheim"><ellipse class="cls-6" cx="252.89" cy="466.34" rx="99.02" ry="95.14" transform="translate(-276.93 493.08) rotate(-64.42)"/><path d="M269.16,499.8l3.52-12,1.5-.23,6.13,10.56-1.59.25-5.5-9.75.61-.09-3.1,11.05Zm1.73-3.14.26-1.35,6-.91.59,1.22Z"/><path d="M281.68,497.9l-1.38-12,1.46-.22,1.38,12Z"/><path d="M283.92,490.15l-.14-1.28,5.13-.78.15,1.28Zm2.21,7.07-1.07-9.32a2.89,2.89,0,0,1,.46-2.11,2.66,2.66,0,0,1,1.88-1.05,3.49,3.49,0,0,1,.91,0,2,2,0,0,1,.79.27l-.31,1.25a1.55,1.55,0,0,0-.55-.22,1.61,1.61,0,0,0-.62,0,1.28,1.28,0,0,0-.93.53,1.71,1.71,0,0,0-.2,1.17l.13,1.15.11.7.85,7.45Z"/><path d="M294.58,487.14a3.65,3.65,0,0,1,1.79.14,2.8,2.8,0,0,1,1.32,1.05,4.58,4.58,0,0,1,.66,2l.57,4.92-1.46.23-.55-4.75a2.61,2.61,0,0,0-.78-1.79,2,2,0,0,0-1.68-.38,2.8,2.8,0,0,0-1.31.53,2.26,2.26,0,0,0-.78,1.08,3.64,3.64,0,0,0-.13,1.62l.5,4.4-1.45.23-1.38-12,1.46-.23L292,490l-.36-.57a3.12,3.12,0,0,1,1.06-1.5A4.1,4.1,0,0,1,294.58,487.14Z"/><path d="M305.22,494.41a4.41,4.41,0,0,1-2.34-.22,3.73,3.73,0,0,1-1.7-1.31,4.65,4.65,0,0,1-.8-2.18,5,5,0,0,1,.27-2.34,4.11,4.11,0,0,1,3.27-2.64,3.78,3.78,0,0,1,2.13.24,3.64,3.64,0,0,1,1.59,1.33,4.93,4.93,0,0,1,.77,2.24c0,.06,0,.14,0,.22V490l-6.85,1-.13-1.11,6.09-.93-.54.48a3,3,0,0,0-.49-1.42,2.36,2.36,0,0,0-1-.87,2.41,2.41,0,0,0-1.4-.16,2.73,2.73,0,0,0-1.31.57,2.77,2.77,0,0,0-.81,1.16,3.4,3.4,0,0,0-.16,1.54l0,.26a3.07,3.07,0,0,0,.55,1.47,2.47,2.47,0,0,0,1.16.88,3,3,0,0,0,1.57.14,3.12,3.12,0,0,0,1.27-.46,3,3,0,0,0,.94-.93l.92.88a3.77,3.77,0,0,1-1.24,1.24A4.67,4.67,0,0,1,305.22,494.41Z"/><path d="M310.47,483.13a.88.88,0,0,1-.74-.18.94.94,0,0,1-.36-.67,1.05,1.05,0,0,1,.2-.77,1,1,0,0,1,.67-.39.92.92,0,0,1,1.1.83,1.12,1.12,0,0,1-.19.78A1,1,0,0,1,310.47,483.13Zm.45,10.32-1-8.56,1.46-.22,1,8.56Z"/><path d="M324.23,482.63a3.52,3.52,0,0,1,1.76.15,2.66,2.66,0,0,1,1.31,1.05,4.42,4.42,0,0,1,.65,2l.57,4.92-1.46.22-.54-4.75a2.69,2.69,0,0,0-.77-1.78,1.85,1.85,0,0,0-1.6-.4,2.44,2.44,0,0,0-1.24.52,2.17,2.17,0,0,0-.73,1.08,3.6,3.6,0,0,0-.12,1.61l.5,4.4-1.45.23-.55-4.75a2.74,2.74,0,0,0-.75-1.79,1.91,1.91,0,0,0-1.62-.4,2.64,2.64,0,0,0-1.22.52,2.26,2.26,0,0,0-.74,1.08,3.61,3.61,0,0,0-.13,1.61l.51,4.41-1.46.22-1-8.55,1.4-.22.26,2.28-.3-.55a3.05,3.05,0,0,1,1-1.48,3.76,3.76,0,0,1,1.79-.75,3.23,3.23,0,0,1,2.06.3,2.81,2.81,0,0,1,1.3,1.67l-.62-.17a3.4,3.4,0,0,1,1.09-1.78A4,4,0,0,1,324.23,482.63Z"/><path class="cls-2" d="M278,540.38a1.41,1.41,0,0,1,.53-1c.18-.11.29-.09,1.09-.18a4.73,4.73,0,0,0,1.09-.18,3,3,0,0,0,.81-.59,4.89,4.89,0,0,0,.94-1.3"/><line class="cls-2" x1="281.48" y1="540.24" x2="282.32" y2="537.23"/><path class="cls-2" d="M285.68,523.21l-4.45,3.25,1.11,11a5.4,5.4,0,0,0,1.78,1.74,5.3,5.3,0,0,0,2.32.74"/><line class="cls-2" x1="280.92" y1="522.43" x2="281.23" y2="526.46"/><line class="cls-2" x1="275.23" y1="524.75" x2="281.31" y2="527.26"/><line class="cls-2" x1="277.26" y1="523.28" x2="279.43" y2="526.48"/><ellipse class="cls-3" cx="285.88" cy="522.16" rx="1.27" ry="0.73" transform="translate(-308.14 561.08) rotate(-65.05)"/><ellipse class="cls-3" cx="282.96" cy="524.1" rx="0.58" ry="0.95" transform="translate(-185.05 155.71) rotate(-23.43)"/><ellipse class="cls-3" cx="281.08" cy="521.19" rx="1.26" ry="0.74" transform="translate(-270.75 735.98) rotate(-82.93)"/><ellipse class="cls-3" cx="279.27" cy="522.56" rx="0.48" ry="1.6" transform="translate(-311.87 482.4) rotate(-57.99)"/><ellipse class="cls-3" cx="276.8" cy="522.75" rx="0.75" ry="1.23" transform="translate(-239.76 234.57) rotate(-32.94)"/><ellipse class="cls-3" cx="275.05" cy="524.63" rx="0.76" ry="1.22" transform="translate(-317.31 525.97) rotate(-62.46)"/><polygon class="cls-4" points="280.84 543.21 286.75 516.39 290.88 541.76 280.84 543.21"/><polygon class="cls-4" points="289.52 515.39 301.35 539.22 291 541.79 289.52 515.39"/><polygon class="cls-4" points="259.69 543.88 269.68 523.48 271.81 542.04 259.69 543.88"/><polygon class="cls-4" points="271.43 522.94 284.67 541.38 272.1 542.24 271.43 522.94"/><polygon class="cls-4" points="267.48 521.72 266.52 514.67 273.43 513.47 269.71 518.62 274.51 521.39 267.48 521.72"/><path class="cls-2" d="M258.09,539.77a1.71,1.71,0,0,0-1-1.1c-.26-.08-.4,0-1.47.18a5.1,5.1,0,0,1-1.47.17,3.46,3.46,0,0,1-1.23-.46,5.89,5.89,0,0,1-1.59-1.33"/><line class="cls-2" x1="253.43" y1="540.93" x2="251.49" y2="537.32"/><path class="cls-2" d="M243.13,520.27l6.75,2.55,1.65,14.84a8.13,8.13,0,0,1-1.84,3,7.89,7.89,0,0,1-2.82,1.85"/><line class="cls-2" x1="249.14" y1="517.44" x2="249.88" y2="522.82"/><line class="cls-2" x1="257.23" y1="518.32" x2="250" y2="523.9"/><line class="cls-2" x1="254.17" y1="517.16" x2="252.23" y2="522.17"/><ellipse class="cls-3" cx="242.58" cy="518.97" rx="1.01" ry="1.65" transform="translate(-264.07 251.62) rotate(-37.13)"/><ellipse class="cls-3" cx="246.94" cy="520.4" rx="1.31" ry="0.76" transform="translate(-315.02 646.9) rotate(-77.3)"/><ellipse class="cls-3" cx="248.59" cy="515.88" rx="1.01" ry="1.68" transform="matrix(0.95, -0.3, 0.3, 0.95, -142.64, 97.71)"/><ellipse class="cls-3" cx="251.33" cy="516.98" rx="2.23" ry="0.63" transform="translate(-297.32 345.47) rotate(-46.71)"/><ellipse class="cls-3" cx="254.61" cy="516.29" rx="1.71" ry="0.99" transform="translate(-318.87 566.3) rotate(-68.73)"/><ellipse class="cls-3" cx="257.43" cy="518.09" rx="1.7" ry="0.99" transform="translate(-284.99 316.94) rotate(-43.23)"/><polygon class="cls-4" points="252.63 548.52 257.44 528.08 258.97 547.31 252.63 548.52"/><polygon class="cls-4" points="260.59 527.69 266.39 544.99 259.54 547.2 260.59 527.69"/><path class="cls-2" d="M306.64,530.5a1.11,1.11,0,0,1,.38-.85c.14-.11.24-.1.89-.22a3.53,3.53,0,0,0,.89-.21,2.16,2.16,0,0,0,.64-.54,3.8,3.8,0,0,0,.71-1.12"/><line class="cls-2" x1="309.55" y1="530.17" x2="310.08" y2="527.65"/><path class="cls-2" d="M312.09,515.89l-3.51,2.94,1.53,9a4.52,4.52,0,0,0,1.57,1.32,4.42,4.42,0,0,0,2,.48"/><line class="cls-2" x1="308.1" y1="515.53" x2="308.58" y2="518.83"/><line class="cls-2" x1="303.52" y1="517.77" x2="308.69" y2="519.49"/><line class="cls-2" x1="305.12" y1="516.44" x2="307.09" y2="518.96"/><ellipse class="cls-3" cx="312.19" cy="515.02" rx="1.05" ry="0.6" transform="translate(-281.11 618.44) rotate(-68.66)"/><ellipse class="cls-3" cx="309.89" cy="516.79" rx="0.48" ry="0.79" transform="translate(-203.21 200.82) rotate(-27.43)"/><ellipse class="cls-3" cx="308.16" cy="514.5" rx="1.05" ry="0.61" transform="translate(-223.62 791.77) rotate(-86.62)"/><ellipse class="cls-3" cx="306.75" cy="515.73" rx="0.4" ry="1.32" transform="translate(-292.57 545.56) rotate(-62.11)"/><ellipse class="cls-3" cx="304.71" cy="516.03" rx="0.63" ry="1.02" transform="translate(-249.39 287.77) rotate(-37.05)"/><ellipse class="cls-3" cx="303.37" cy="517.69" rx="0.63" ry="1.01" transform="translate(-292.03 592.04) rotate(-66.75)"/><polygon class="cls-4" points="295.99 535.28 298.6 515.97 303.04 533.64 295.99 535.28"/><polygon class="cls-4" points="300.5 515.09 310.32 531.19 303.12 533.65 300.5 515.09"/><polygon class="cls-4" points="296.14 510.47 297.22 515.27 301.94 514.02 298.31 511.8 300.72 508.62 296.14 510.47"/><polygon class="cls-4" points="238.34 549.77 243.43 526.72 246.98 548.52 238.34 549.77"/><polygon class="cls-4" points="245.8 525.86 255.97 546.34 247.08 548.55 245.8 525.86"/></g><g id="nilfheim"><ellipse class="cls-7" cx="368.44" cy="198.5" rx="116.5" ry="105"/><path d="M295.29,237.86l-1.38-11.29,1.27-.16,8.31,8.4-.67.08-1.13-9.27,1.55-.19,1.38,11.29-1.27.15L295,228.48l.67-.09,1.13,9.28Z"/><path d="M307.15,226.06a1,1,0,0,1-1.12-.87,1,1,0,0,1,.19-.77,1,1,0,0,1,.69-.37,1,1,0,0,1,.75.19,1,1,0,0,1,.38.67,1.05,1.05,0,0,1-.19.76A.94.94,0,0,1,307.15,226.06Zm.51,10.29-1.05-8.55,1.49-.18,1,8.54Z"/><path d="M312,235.82l-1.46-12,1.48-.18,1.47,12Z"/><path d="M314.24,228.16l-.16-1.27,5.24-.64.15,1.27Zm2.28,7.1-1.14-9.3a2.86,2.86,0,0,1,.46-2.1,2.65,2.65,0,0,1,1.92-1,3.21,3.21,0,0,1,.93,0,2,2,0,0,1,.8.28l-.3,1.24a1.81,1.81,0,0,0-.57-.24,1.88,1.88,0,0,0-.63,0,1.32,1.32,0,0,0-.95.5,1.67,1.67,0,0,0-.2,1.16l.14,1.15.12.71.91,7.43Z"/><path d="M325.1,225.46a3.8,3.8,0,0,1,1.83.18,2.94,2.94,0,0,1,1.35,1.08,4.63,4.63,0,0,1,.69,2l.6,4.92-1.49.18-.58-4.74a2.67,2.67,0,0,0-.81-1.8,2.12,2.12,0,0,0-1.71-.43,2.8,2.8,0,0,0-1.34.49,2.16,2.16,0,0,0-.79,1.06,3.59,3.59,0,0,0-.13,1.61l.54,4.4-1.49.18-1.46-12,1.49-.18.7,5.73-.37-.58a3,3,0,0,1,1.08-1.46A4,4,0,0,1,325.1,225.46Z"/><path d="M336,233a4.66,4.66,0,0,1-2.38-.28,4,4,0,0,1-1.74-1.36,4.61,4.61,0,0,1-.83-2.19,4.68,4.68,0,0,1,.26-2.32,4,4,0,0,1,1.28-1.72,4.14,4.14,0,0,1,2.05-.82,4.05,4.05,0,0,1,2.18.29,3.88,3.88,0,0,1,1.62,1.37,5.07,5.07,0,0,1,.8,2.25c0,.06,0,.14,0,.22s0,.17,0,.25l-7,.85-.14-1.11,6.22-.76-.56.46a3.07,3.07,0,0,0-.51-1.43,2.53,2.53,0,0,0-1.06-.89,2.84,2.84,0,0,0-2.76.34,2.46,2.46,0,0,0-.82,1.13,3.1,3.1,0,0,0-.16,1.53l0,.26a3.16,3.16,0,0,0,.56,1.48,2.74,2.74,0,0,0,1.19.91,3.29,3.29,0,0,0,1.61.18,3.38,3.38,0,0,0,1.3-.42,3,3,0,0,0,.95-.9l.94.9a3.71,3.71,0,0,1-1.26,1.2A4.7,4.7,0,0,1,336,233Z"/><path d="M341.31,221.89a1,1,0,0,1-.76-.2,1,1,0,0,1-.37-.68,1,1,0,0,1,.88-1.14,1,1,0,0,1,.75.2.94.94,0,0,1,.38.66,1.08,1.08,0,0,1-.19.77A1,1,0,0,1,341.31,221.89Zm.5,10.28-1.05-8.55,1.49-.18,1,8.55Z"/><path d="M355.35,221.76a3.68,3.68,0,0,1,1.8.19,2.84,2.84,0,0,1,1.33,1.08,4.5,4.5,0,0,1,.68,2l.61,4.92-1.49.18-.58-4.74a2.81,2.81,0,0,0-.79-1.81,2,2,0,0,0-1.64-.43,2.53,2.53,0,0,0-1.26.48,2.13,2.13,0,0,0-.75,1.05,3.77,3.77,0,0,0-.11,1.61l.54,4.4-1.49.18-.58-4.74a2.8,2.8,0,0,0-.77-1.8,2,2,0,0,0-1.65-.44,2.53,2.53,0,0,0-1.25.48,2.11,2.11,0,0,0-.75,1.06,3.42,3.42,0,0,0-.12,1.6l.54,4.4-1.49.18-1.05-8.54,1.43-.18.28,2.28-.31-.56a2.91,2.91,0,0,1,1-1.45,3.69,3.69,0,0,1,1.82-.7,3.51,3.51,0,0,1,2.1.36,2.9,2.9,0,0,1,1.34,1.69l-.64-.18a3.2,3.2,0,0,1,1.11-1.74A4,4,0,0,1,355.35,221.76Z"/><path class="cls-2" d="M389.2,271.34a1.47,1.47,0,0,1,.61-1.1c.2-.12.33-.1,1.24-.17a4.58,4.58,0,0,0,1.25-.18,2.93,2.93,0,0,0,.93-.63,5.3,5.3,0,0,0,1.07-1.42"/><line class="cls-2" x1="393.25" y1="271.28" x2="394.19" y2="267.94"/><path class="cls-2" d="M398,252.35l-5.09,3.5,1.34,12.38a6.4,6.4,0,0,0,4.71,2.9"/><line class="cls-2" x1="392.51" y1="251.34" x2="392.89" y2="255.85"/><line class="cls-2" x1="386" y1="253.76" x2="392.98" y2="256.75"/><line class="cls-2" x1="388.31" y1="252.17" x2="390.82" y2="255.83"/><ellipse class="cls-3" cx="398.2" cy="251.18" rx="1.41" ry="0.84" transform="translate(-0.04 502.3) rotate(-64.48)"/><ellipse class="cls-3" cx="394.87" cy="253.27" rx="0.65" ry="1.09" transform="translate(-70.27 192.33) rotate(-25.21)"/><ellipse class="cls-3" cx="392.68" cy="249.95" rx="1.41" ry="0.85" transform="translate(101.68 613.26) rotate(-83.78)"/><ellipse class="cls-3" cx="390.62" cy="251.42" rx="0.54" ry="1.85" transform="matrix(0.53, -0.84, 0.84, 0.53, -30.75, 446.99)"/><ellipse class="cls-3" cx="387.79" cy="251.57" rx="0.85" ry="1.41" transform="translate(-74.29 263.72) rotate(-34.48)"/><ellipse class="cls-3" cx="385.79" cy="253.62" rx="0.85" ry="1.41" transform="translate(-19.25 475.2) rotate(-62)"/><polygon class="cls-4" points="392.53 274.59 399.18 244.75 404.05 273.28 392.53 274.59"/><polygon class="cls-4" points="402.34 243.71 416.05 270.75 404.19 273.31 402.34 243.71"/><polygon class="cls-4" points="368.27 274.71 379.62 252.17 382.16 273.01 368.27 274.71"/><polygon class="cls-4" points="381.63 251.62 396.91 272.66 382.5 273.24 381.63 251.62"/><polygon class="cls-4" points="377.09 250.13 375.95 242.21 383.87 241.07 379.63 246.73 385.15 249.98 377.09 250.13"/><path class="cls-2" d="M366.41,270.06a2,2,0,0,0-1.13-1.26c-.3-.1-.46,0-1.69.15a5.92,5.92,0,0,1-1.68.15,3.72,3.72,0,0,1-1.41-.56,6.71,6.71,0,0,1-1.84-1.54"/><line class="cls-2" x1="361.07" y1="271.21" x2="358.83" y2="267.11"/><path class="cls-2" d="M349.14,247.78l7.75,3.06,2,16.66a8.65,8.65,0,0,1-5.32,5.23"/><line class="cls-2" x1="356.02" y1="244.79" x2="356.89" y2="250.84"/><line class="cls-2" x1="365.31" y1="246.01" x2="357.04" y2="252.05"/><line class="cls-2" x1="361.79" y1="244.62" x2="359.59" y2="250.18"/><ellipse class="cls-3" cx="348.5" cy="246.31" rx="1.14" ry="1.89" transform="translate(-77.58 270.33) rotate(-38.48)"/><ellipse class="cls-3" cx="353.51" cy="248.04" rx="1.46" ry="0.88" transform="translate(36.08 540.83) rotate(-77.74)"/><ellipse class="cls-3" cx="355.38" cy="243.03" rx="1.14" ry="1.9" transform="translate(-60.1 130.19) rotate(-19.17)"/><ellipse class="cls-3" cx="358.53" cy="244.34" rx="2.49" ry="0.72" transform="translate(-67.35 327.25) rotate(-45.29)"/><ellipse class="cls-3" cx="362.29" cy="243.67" rx="1.9" ry="1.14" transform="translate(2.7 491.31) rotate(-68.48)"/><ellipse class="cls-3" cx="365.54" cy="245.77" rx="1.9" ry="1.14" transform="translate(-71.62 299.74) rotate(-40.95)"/><polygon class="cls-4" points="360.19 279.68 365.6 256.95 367.46 278.52 360.19 279.68"/><polygon class="cls-4" points="369.21 256.61 375.96 276.15 368.11 278.42 369.21 256.61"/><path class="cls-2" d="M422.07,261.14a1.18,1.18,0,0,1,.44-.94c.15-.11.26-.1,1-.22a3.42,3.42,0,0,0,1-.21,2.4,2.4,0,0,0,.73-.58,4,4,0,0,0,.81-1.23"/><line class="cls-2" x1="425.41" y1="260.86" x2="426" y2="258.05"/><path class="cls-2" d="M428.24,245l-4,3.18L426,258.29a5.32,5.32,0,0,0,4.06,2.12"/><line class="cls-2" x1="423.67" y1="244.43" x2="424.23" y2="248.14"/><line class="cls-2" x1="418.42" y1="246.8" x2="424.36" y2="248.88"/><line class="cls-2" x1="420.25" y1="245.36" x2="422.53" y2="248.23"/><ellipse class="cls-3" cx="428.36" cy="243.98" rx="1.16" ry="0.7" transform="translate(43.84 552.46) rotate(-68.4)"/><ellipse class="cls-3" cx="425.72" cy="245.89" rx="0.54" ry="0.9" transform="translate(-65.85 238.4) rotate(-29.14)"/><ellipse class="cls-3" cx="423.73" cy="243.28" rx="1.17" ry="0.7" transform="translate(163.71 656.94) rotate(-87.71)"/><ellipse class="cls-3" cx="422.11" cy="244.61" rx="0.45" ry="1.53" transform="translate(6.13 499.5) rotate(-61.59)"/><ellipse class="cls-3" cx="419.78" cy="244.89" rx="0.7" ry="1.17" transform="matrix(0.78, -0.62, 0.62, 0.78, -61.31, 313.74)"/><ellipse class="cls-3" cx="418.24" cy="246.7" rx="0.7" ry="1.17" transform="translate(22.4 527.94) rotate(-65.93)"/><polygon class="cls-4" points="409.87 266.18 412.76 244.63 417.95 264.55 409.87 266.18"/><polygon class="cls-4" points="414.94 243.71 426.29 262.03 418.05 264.56 414.94 243.71"/><polygon class="cls-4" points="409.91 238.41 411.18 243.81 416.58 242.55 412.41 239.96 415.16 236.47 409.91 238.41"/><polygon class="cls-4" points="343.81 280.65 349.51 255 353.7 279.52 343.81 280.65"/><polygon class="cls-4" points="352.23 254.11 364.01 277.35 353.82 279.55 352.23 254.11"/></g><g id="svartheim"><ellipse class="cls-8" cx="398.44" cy="99.25" rx="120.5" ry="99.25"/><path d="M362.42,37.4A7.61,7.61,0,0,1,360,37a5,5,0,0,1-1.79-1l.57-1.2a5,5,0,0,0,1.6.89,5.68,5.68,0,0,0,2,.36,4.66,4.66,0,0,0,1.54-.22,1.82,1.82,0,0,0,.88-.59,1.38,1.38,0,0,0,.28-.85,1.13,1.13,0,0,0-.37-.89,2.64,2.64,0,0,0-.95-.55,10,10,0,0,0-1.29-.36q-.7-.15-1.41-.36a6.83,6.83,0,0,1-1.29-.53,2.4,2.4,0,0,1-1.31-2.27A2.77,2.77,0,0,1,359,28a3,3,0,0,1,1.37-1.12,5.76,5.76,0,0,1,2.36-.42,7.53,7.53,0,0,1,1.89.24,5.16,5.16,0,0,1,1.63.71l-.52,1.23a5,5,0,0,0-1.48-.67,5.85,5.85,0,0,0-1.52-.21,4.32,4.32,0,0,0-1.51.23,1.88,1.88,0,0,0-.87.62,1.44,1.44,0,0,0-.27.86,1.15,1.15,0,0,0,.37.9,2.49,2.49,0,0,0,1,.54q.58.2,1.29.36t1.41.36a6.3,6.3,0,0,1,1.3.52,2.68,2.68,0,0,1,.94.86,2.45,2.45,0,0,1,.36,1.39,2.75,2.75,0,0,1-.45,1.51A3.14,3.14,0,0,1,364.8,37,5.87,5.87,0,0,1,362.42,37.4Z"/><path d="M370.72,37.28l-3.62-8.14h1.56l3.22,7.37h-.75l3.28-7.37h1.47l-3.63,8.14Z"/><path d="M379.43,37.37a3.85,3.85,0,0,1-1.61-.31,2.41,2.41,0,0,1-1.07-.85,2.11,2.11,0,0,1-.38-1.23,2.34,2.34,0,0,1,.32-1.2,2.23,2.23,0,0,1,1.05-.86,4.81,4.81,0,0,1,2-.33h2.62v1.06h-2.56a2.28,2.28,0,0,0-1.51.37,1.2,1.2,0,0,0-.39.89,1.14,1.14,0,0,0,.48,1,2.2,2.2,0,0,0,1.34.36,2.92,2.92,0,0,0,1.48-.36,2.1,2.1,0,0,0,.91-1.08l.3,1A2.29,2.29,0,0,1,381.32,37,3.83,3.83,0,0,1,379.43,37.37Zm2.72-.09V35.56l-.08-.32V32.3a1.88,1.88,0,0,0-.55-1.45,2.39,2.39,0,0,0-1.66-.51,4.44,4.44,0,0,0-1.44.24,3.74,3.74,0,0,0-1.19.63l-.62-1.1a4.56,4.56,0,0,1,1.54-.78,6.43,6.43,0,0,1,1.88-.27,3.79,3.79,0,0,1,2.62.82,3.15,3.15,0,0,1,.92,2.48v4.92Z"/><path d="M386.35,37.28V29.14h1.44v2.21l-.15-.55a2.48,2.48,0,0,1,1.16-1.29,4.08,4.08,0,0,1,2-.45v1.43h-.35a2.56,2.56,0,0,0-1.9.7,2.76,2.76,0,0,0-.7,2v4.06Z"/><path d="M391.8,30.35V29.14h5.27v1.21Zm4,7a2.67,2.67,0,0,1-1.93-.66,2.49,2.49,0,0,1-.69-1.89V27.36h1.5v7.4a1.37,1.37,0,0,0,.34,1,1.24,1.24,0,0,0,1,.36,1.8,1.8,0,0,0,1.17-.39l.47,1.06a2.15,2.15,0,0,1-.82.43A3.66,3.66,0,0,1,395.82,37.37Z"/><path d="M403.86,29.06a3.9,3.9,0,0,1,1.79.39,2.71,2.71,0,0,1,1.21,1.16,4.08,4.08,0,0,1,.44,2v4.69h-1.5V32.76a2.47,2.47,0,0,0-.59-1.78,2.19,2.19,0,0,0-1.64-.6,3,3,0,0,0-1.39.31,2.18,2.18,0,0,0-.92.91,3.16,3.16,0,0,0-.32,1.49v4.19h-1.49V25.88h1.49v5.46l-.29-.59a2.78,2.78,0,0,1,1.25-1.24A4.08,4.08,0,0,1,403.86,29.06Z"/><path d="M413.76,37.37a4.83,4.83,0,0,1-2.33-.54,3.76,3.76,0,0,1-1.56-1.47,4.15,4.15,0,0,1-.56-2.15,4.21,4.21,0,0,1,.54-2.15,3.87,3.87,0,0,1,1.48-1.47,4.31,4.31,0,0,1,2.13-.53,4.36,4.36,0,0,1,2.13.52A3.77,3.77,0,0,1,417,31.05a4.47,4.47,0,0,1,.52,2.2,1.7,1.7,0,0,1,0,.22,1.64,1.64,0,0,1,0,.23h-7V32.64h6.26l-.61.37a2.71,2.71,0,0,0-.33-1.4,2.41,2.41,0,0,0-.94-1,3,3,0,0,0-2.79,0,2.46,2.46,0,0,0-.95,1,2.87,2.87,0,0,0-.34,1.42v.25a2.83,2.83,0,0,0,.38,1.45,2.69,2.69,0,0,0,1.07,1,3.47,3.47,0,0,0,1.58.35,3.35,3.35,0,0,0,1.33-.25,2.81,2.81,0,0,0,1.05-.73l.83.95a3.52,3.52,0,0,1-1.4,1A4.78,4.78,0,0,1,413.76,37.37Z"/><path d="M420.38,27.57a1,1,0,0,1-.73-.27.92.92,0,0,1-.29-.68.91.91,0,0,1,.29-.69,1.05,1.05,0,0,1,.73-.28,1,1,0,0,1,.72.27.85.85,0,0,1,.29.67.94.94,0,0,1-.28.7A1,1,0,0,1,420.38,27.57Zm-.75,9.71V29.14h1.5v8.14Z"/><path d="M434.33,29.06a3.85,3.85,0,0,1,1.77.39,2.67,2.67,0,0,1,1.19,1.16,4.09,4.09,0,0,1,.43,2v4.69h-1.5V32.76a2.5,2.5,0,0,0-.56-1.78,2.05,2.05,0,0,0-1.58-.6,2.76,2.76,0,0,0-1.31.31,2.1,2.1,0,0,0-.86.91,3.16,3.16,0,0,0-.31,1.49v4.19h-1.5V32.76a2.55,2.55,0,0,0-.55-1.78,2.06,2.06,0,0,0-1.59-.6,2.7,2.7,0,0,0-1.29.31,2.07,2.07,0,0,0-.87.91,3.16,3.16,0,0,0-.32,1.49v4.19H424V29.14h1.44V31.3l-.23-.55a2.77,2.77,0,0,1,1.2-1.24,3.83,3.83,0,0,1,1.89-.45,3.52,3.52,0,0,1,2,.58,2.73,2.73,0,0,1,1.13,1.74l-.61-.24a3,3,0,0,1,1.31-1.51A4.1,4.1,0,0,1,434.33,29.06Z"/><path class="cls-2" d="M402.13,92.34a1.42,1.42,0,0,1,.73-1c.22-.09.34-.06,1.26,0a4.89,4.89,0,0,0,1.26,0,2.78,2.78,0,0,0,1-.49,4.86,4.86,0,0,0,1.24-1.21"/><line class="cls-2" x1="406.16" y1="92.76" x2="407.49" y2="89.73"/><path class="cls-2" d="M413.15,75.54l-5.49,2.7L407.49,90a6.19,6.19,0,0,0,1.8,2.11,6.6,6.6,0,0,0,2.53,1.15"/><line class="cls-2" x1="407.84" y1="73.95" x2="407.66" y2="78.24"/><line class="cls-2" x1="401.08" y1="75.49" x2="407.65" y2="79.09"/><line class="cls-2" x1="403.57" y1="74.26" x2="405.62" y2="77.98"/><ellipse class="cls-3" cx="413.5" cy="74.46" rx="1.35" ry="0.83" transform="translate(111.58 366.64) rotate(-54.27)"/><ellipse class="cls-3" cx="409.94" cy="76.04" rx="0.65" ry="1.03" transform="translate(-0.71 148.16) rotate(-20.47)"/><ellipse class="cls-3" cx="408.18" cy="72.68" rx="1.34" ry="0.84" transform="translate(233.2 448.54) rotate(-75.13)"/><ellipse class="cls-3" cx="405.95" cy="73.82" rx="0.52" ry="1.81" transform="translate(100.52 351.23) rotate(-52.55)"/><ellipse class="cls-3" cx="403.12" cy="73.63" rx="0.84" ry="1.35" transform="translate(18.39 214.73) rotate(-30.49)"/><ellipse class="cls-3" cx="400.89" cy="75.33" rx="0.81" ry="1.39" transform="translate(125.25 376.01) rotate(-58.13)"/><polygon class="cls-4" points="405.04 95.78 415.25 68.54 416.63 95.86 405.04 95.78"/><polygon class="cls-4" points="418.52 67.93 428.84 94.87 416.76 95.91 418.52 67.93"/><polygon class="cls-4" points="380.94 93.11 394.94 73.26 394.94 93.11 380.94 93.11"/><polygon class="cls-4" points="397 72.97 409.62 94.47 395.24 93.36 397 72.97"/><polygon class="cls-4" points="392.68 71.06 392.5 63.49 400.5 63.33 395.61 68.16 400.69 71.84 392.68 71.06"/><path class="cls-2" d="M379.66,88.53a1.89,1.89,0,0,0-1-1.31c-.29-.13-.46-.09-1.69-.06a6.56,6.56,0,0,1-1.7,0,4,4,0,0,1-1.33-.68,6.71,6.71,0,0,1-1.63-1.66"/><line class="cls-2" x1="374.22" y1="89" x2="372.49" y2="84.89"/><path class="cls-2" d="M365.22,65.64l7.32,3.76-.05,15.86a8.37,8.37,0,0,1-2.47,2.8,9,9,0,0,1-3.45,1.5"/><line class="cls-2" x1="372.41" y1="63.63" x2="372.54" y2="69.4"/><line class="cls-2" x1="381.48" y1="65.84" x2="372.54" y2="70.55"/><line class="cls-2" x1="378.15" y1="64.13" x2="375.31" y2="69.1"/><ellipse class="cls-3" cx="364.76" cy="64.19" rx="1.12" ry="1.82" transform="translate(28.35 219.11) rotate(-34.71)"/><ellipse class="cls-3" cx="369.52" cy="66.39" rx="1.39" ry="0.87" transform="translate(172.06 385.71) rotate(-68.45)"/><ellipse class="cls-3" cx="371.99" cy="61.9" rx="1.14" ry="1.8" transform="translate(-4.04 90.33) rotate(-13.77)"/><ellipse class="cls-3" cx="374.96" cy="63.49" rx="2.44" ry="0.7" transform="translate(35.72 235.37) rotate(-36.48)"/><ellipse class="cls-3" cx="378.77" cy="63.3" rx="1.82" ry="1.13" transform="translate(126.73 353.04) rotate(-58.47)"/><ellipse class="cls-3" cx="381.74" cy="65.63" rx="1.87" ry="1.1" transform="translate(20.57 205.6) rotate(-30.94)"/><polygon class="cls-4" points="372.31 96.84 380.44 76.13 379.67 96.59 372.31 96.84"/><polygon class="cls-4" points="384.07 76.23 388.4 95.34 380.33 96.57 384.07 76.23"/><path class="cls-2" d="M436,86.54a1.2,1.2,0,0,1,.56-.83c.17-.09.27-.07,1-.08a3.56,3.56,0,0,0,1-.09,2.26,2.26,0,0,0,.79-.46,4,4,0,0,0,1-1.06"/><line class="cls-2" x1="439.34" y1="86.67" x2="440.26" y2="84.1"/><path class="cls-2" d="M444.08,72.07l-4.37,2.52.57,9.73A5.09,5.09,0,0,0,441.89,86a5.46,5.46,0,0,0,2.16.81"/><line class="cls-2" x1="439.6" y1="71.05" x2="439.71" y2="74.59"/><line class="cls-2" x1="434.11" y1="72.67" x2="439.75" y2="75.3"/><line class="cls-2" x1="436.09" y1="71.53" x2="438.01" y2="74.49"/><ellipse class="cls-3" cx="444.31" cy="71.16" rx="1.12" ry="0.69" transform="translate(150.82 412.25) rotate(-58.39)"/><ellipse class="cls-3" cx="441.46" cy="72.65" rx="0.53" ry="0.86" transform="translate(10.15 191.54) rotate(-24.76)"/><ellipse class="cls-3" cx="439.8" cy="69.97" rx="1.11" ry="0.7" transform="translate(291.06 489.74) rotate(-79.53)"/><ellipse class="cls-3" cx="438.03" cy="71.04" rx="0.43" ry="1.5" transform="translate(136.46 396.58) rotate(-56.4)"/><ellipse class="cls-3" cx="435.69" cy="71.03" rx="0.69" ry="1.12" transform="translate(36.82 260.17) rotate(-34.63)"/><ellipse class="cls-3" cx="433.94" cy="72.56" rx="0.67" ry="1.15" transform="translate(165.16 420.87) rotate(-61.84)"/><polygon class="cls-4" points="423.27 89.87 428.75 69.99 431.49 89.27 423.27 89.87"/><polygon class="cls-4" points="431.03 69.37 440.07 87.86 431.58 89.29 431.03 69.37"/><polygon class="cls-4" points="426.68 63.82 427.28 69.04 432.8 68.47 428.97 65.57 432.13 62.6 426.68 63.82"/><polygon class="cls-4" points="355.94 95.87 364.71 72.47 365.9 95.95 355.94 95.87"/><polygon class="cls-4" points="367.52 71.94 376.39 95.09 366.01 95.99 367.52 71.94"/></g><g id="festival-spots-1"><g id="map_stages" data-name="map+stages"><path class="cls-9" d="M217.44,304a97.12,97.12,0,0,0,7,11c4.9,6.7,8.82,9.48,17,18,6.32,6.59,8,7.64,10,11,1.89,3.14,2.53,5.28,5,8,2.08,2.29,4.42,3.49,9,6,4.22,2.31,4.93,2.29,10,5,1.48.79,2.11,1.17,7,4,11.37,6.6,11.3,6.52,12,7a58.33,58.33,0,0,1,11,10,63.37,63.37,0,0,1,11,16,53.58,53.58,0,0,1,4,30c-3.14,18.64-15.94,29.64-21,34a86,86,0,0,1-15,10c-8.17,4.57-14.95,7.07-23,10-4.89,1.78-10.59,3.52-22,7-14.55,4.44-10.94,3-17,5-7.33,2.43-9.92,3.65-15,4s-5.27-.66-10,0c-2.83.4-8.25,1.22-13,5-.35.28-.21.18-5,5-3.52,3.53-5.27,5.3-6,6-3.87,3.73-7,6.71-11,9a34.74,34.74,0,0,1-13,4,47.93,47.93,0,0,1-22-2,47.33,47.33,0,0,1-18-11c-5-4.94-7.74-11-13-23-8-18.13-6.65-21.12-13-36a40.36,40.36,0,0,1-3-23c.85-5.41,2.16-6.7,5-15,1.23-3.62,2.15-7.08,4-14,1.73-6.5,3.4-12.77,5-21,1.07-5.53,1.71-10,3-19,.88-6.19,1.55-11.36,2-15Z"/><path class="cls-10" d="M245.44,207c-1.7,4.38-2,5.55-3,8a63.78,63.78,0,0,1-4,8c-3,5.05-3.83,4.71-6,9-1.37,2.69-1.43,3.58-3,6a38,38,0,0,1-4,5c-2.54,2.79-3.06,2.86-5,5a33.16,33.16,0,0,0-5,7c-1.28,2.44-1.86,4.63-3,9a55.52,55.52,0,0,0-2,10,50.09,50.09,0,0,0,0,9,48.15,48.15,0,0,0,1,7,45.38,45.38,0,0,0,3,9l-115,45c-1.11.73-2.46,1.45-3,1s.39-2.58,1-5c.43-1.71.4-2.73,0-9-.5-7.59-.75-11.41-1-13a89.86,89.86,0,0,0-2-9c-.79-3-1.2-4.13-3-10-1.68-5.46-2.52-8.19-3-10-1.43-5.32-2.18-9.41-3-14-1.07-5.93-1.67-10.47-2-13-2.1-16-3.15-24-4-33-1.41-14.82-2.11-22.22-2-29,.29-19.34,5.31-33.65,10-47,4.53-12.93,10.74-30.18,25-49,7-9.25,17.46-22.79,36-34,17.85-10.8,34.18-14,45-16,8.54-1.59,20-3.63,35-2a105.88,105.88,0,0,1,28,7S246.26,204.87,245.44,207Z"/><path class="cls-11" d="M262.44,60c3.57,1.6,7.62,3.58,12,6,1.24.69,6.42,3.57,13,8,3.6,2.42,6.06,4.28,11,8,6.39,4.81,6.88,5.41,13,10,2.57,1.93,6.16,4.62,11,8,3.29,2.3,6.95,4.85,12,8,2.49,1.56,6.5,4,12,7,5.12,2.75,9.07,4.58,10,5,6,2.75,10.05,4.62,15,6a62.59,62.59,0,0,0,20,2c5.86-.19,13.23-.49,22-4a55.08,55.08,0,0,0,15-9c1.35-1.14,4-3.52,12-14,5.7-7.5,6.31-8.88,13-18,5-6.78,2.84-3.57,13-17,4.62-6.12,6.89-9.19,11-13,5.22-4.85,7-6.28,9-7,5.24-1.89,10.22-.67,13,0a26.82,26.82,0,0,1,9,4c1.1.79,2.7,2.06,6,6a104.17,104.17,0,0,1,8,11c4.26,6.68,6.34,10,8,14a50.21,50.21,0,0,1,4,26,49.07,49.07,0,0,1-5,16c-2.51,4.86-6,8.9-13,17-1.85,2.13-.88.94-9,10-7,7.76-7.72,8.69-10,11a135.3,135.3,0,0,1-11,10,123.76,123.76,0,0,1-16,11,139.37,139.37,0,0,1-17,8c-4.32,1.8-8.28,3.22-16,6-4.92,1.77-9.42,3.35-20,7-20,6.9-21.91,7.44-24,8a116.11,116.11,0,0,1-21,4,68.84,68.84,0,0,1-17,0,49,49,0,0,1-19-6c-2.16-1.26-1.52-1.15-11-8-5.75-4.15-8.62-6.23-10-7a55,55,0,0,0-18-6,51.49,51.49,0,0,0-15-1,41.06,41.06,0,0,0-15,4,40,40,0,0,0-15,13Z"/><rect class="cls-11" x="235.59" y="348.35" width="23.36" height="53.4" rx="5.33" transform="matrix(-0.66, 0.75, -0.75, -0.66, 692.47, 435.07)"/><rect class="cls-9" x="110.71" y="113.65" width="23.36" height="53.4" rx="5.33" transform="translate(80.01 -40.98) rotate(27.93)"/><rect class="cls-10" x="487.71" y="56.65" width="23.36" height="53.4" rx="5.33" transform="translate(177.51 474.15) rotate(-60)"/></g></g></svg>