<svg id="Layer_1" data-name="Layer 1" xmlns="http://www.w3.org/2000/svg" viewBox="0 0 57.95 70.81"><defs><style>.cls-1{fill:#fff;}</style></defs><path class="cls-1" d="M15.84,13.75a43.72,43.72,0,0,0-8.15-7.4C7,4.89,7.1,4,9.3,4.63A26.51,26.51,0,0,1,18,11.53a1.46,1.46,0,0,0,1.8.38l.16-.07a1,1,0,0,0,.54-.81,10.21,10.21,0,0,0-.36-2.89,1.42,1.42,0,0,0-.11-.35A52.42,52.42,0,0,1,17.24.67c.43-1,1.18-.95,2.35.53A18.87,18.87,0,0,1,22.9,11.48a1,1,0,0,0,.89.93h0a.69.69,0,0,0,.75-.71A25.73,25.73,0,0,0,23.75,7a2.64,2.64,0,0,0-.25-.66,12.85,12.85,0,0,1-1.65-5,.51.51,0,0,1,.77-.48,5.65,5.65,0,0,1,1.8,2C26,5.29,26.83,8.83,27.18,13.31a1.85,1.85,0,0,0,.27.81,7.42,7.42,0,0,1,.27,8,1.46,1.46,0,0,0,.13,1.6c3.09,3.93,5.95,6.93,8.16,9.49a1.17,1.17,0,0,1,.27.56c.62,3.34-1.21,4.09-4.14,3.64-1.64-1.44-3.83-5.62-6.25-11a2.11,2.11,0,0,0-2.15-1l-.64.11a3.23,3.23,0,0,0-2.16,1.33L17.28,32a1.89,1.89,0,0,0-.11,2,2.58,2.58,0,0,0,1.57,1.27c2.24.34,3.37,1.86,3.54,4.4l.44,5.72a2.81,2.81,0,0,0,.91,1.85,12.8,12.8,0,0,1,2.79,3.44,1.05,1.05,0,0,1-.67,1.48,6.85,6.85,0,0,1-6.07-.92,1.21,1.21,0,0,1-.47-.83,14.21,14.21,0,0,1,.34-5.35.69.69,0,0,0-1-.77,5,5,0,0,0-1.62,2.88,52.86,52.86,0,0,0,.28,7.56.74.74,0,0,1-.73.79c-3,0-4.64-2.11-5-4.79A2.41,2.41,0,0,1,11.88,49a53.77,53.77,0,0,0,4.18-6.81s-1.2-2.66-2.55-2.8-3.14-2.09-2.06-6l4.13-8.16c.86-2,.1-5-1.71-5.76L3.31,16.25c-1.42-.74-2-1.91.94-2.38a22.84,22.84,0,0,1,9.16,2.26S18.7,16.77,15.84,13.75Z"/><path class="cls-1" d="M26.49,44.5c-.81-1.29,1-2.32,2.36-1.29C34.61,47.64,38,53.06,35.44,61c-2.29,5.2-6.76,8.17-12.77,9.57-6,.75-11.42,0-15.93-3.39C.72,62.39-1.11,56.26.62,49c1.86-3.84,4.4-6.6,8.08-7.61,2.29-.46,3,0,2.56,1.13A5.66,5.66,0,0,1,8.7,44.7c-3.85,1.21-5.19,4.06-5.52,7.55-.34,5.64,1.57,8.39,4.1,10.33A20.14,20.14,0,0,0,23.5,64.9a17.68,17.68,0,0,0,7.66-4.45c1.4-1.85.41-2.78-2.2-3.09a30.74,30.74,0,0,0-8.79,3.44l-4.46,1.67c-2.18.54-2.4-.21-1.88-1.43a2.05,2.05,0,0,1,.77-.93,29.27,29.27,0,0,1,8.9-4.54l7-1.6a2.14,2.14,0,0,0,1.67-2.45,5.29,5.29,0,0,0-2-3.88Z"/><path class="cls-1" d="M39.6,54.28a37.92,37.92,0,0,1,15.91,4.57,2,2,0,0,1,.44.33l2,1.93c.24,1.44-.73,1.63-2.38,1.13L46.14,58.8a5.76,5.76,0,0,0-1.64-.33l-4.42-.21c-2-.59-2.73-1.59-2.09-3A1.61,1.61,0,0,1,39.6,54.28Z"/></svg>