<svg xmlns="http://www.w3.org/2000/svg" viewBox="0 0 458.37 485.5"><defs><style>.cls-1{fill:#bf4e34;stroke:#bf4e34;}.cls-1,.cls-2,.cls-4{stroke-miterlimit:10;}.cls-2{fill:#d15e3f;stroke:#d15e3f;}.cls-3{fill:#fff;}.cls-4{fill:#f26a3c;stroke:#f26a3c;}</style></defs><g id="festival-spots-3"><path class="cls-1" d="M185.51,15.51c3.57,1.6,7.62,3.58,12,6,1.24.69,6.43,3.57,13,8,3.6,2.42,6.06,4.28,11,8,6.39,4.81,6.88,5.41,13,10,2.57,1.93,6.17,4.62,11,8,3.29,2.3,7,4.85,12,8,2.49,1.55,6.5,4.05,12,7,5.12,2.75,9.08,4.57,10,5,6,2.75,10.06,4.62,15,6a62.88,62.88,0,0,0,20,2c5.86-.19,13.23-.49,22-4a54.92,54.92,0,0,0,15-9c1.35-1.14,4-3.52,12-14,5.71-7.5,6.32-8.88,13-18,5-6.78,2.84-3.57,13-17,4.63-6.12,6.89-9.19,11-13,5.23-4.85,7-6.28,9-7,5.24-1.89,10.23-.68,13,0a26.82,26.82,0,0,1,9,4c1.11.78,2.7,2.05,6,6a104.17,104.17,0,0,1,8,11c4.27,6.68,6.35,10.05,8,14a50.11,50.11,0,0,1,4,26,48.55,48.55,0,0,1-5,16c-2.5,4.85-6,8.9-13,17-1.84,2.13-.88.94-9,10-7,7.76-7.72,8.69-10,11a135.3,135.3,0,0,1-11,10,123,123,0,0,1-16,11,138.67,138.67,0,0,1-17,8c-4.32,1.8-8.27,3.22-16,6-4.92,1.77-9.42,3.35-20,7-20,6.89-21.9,7.44-24,8a116.81,116.81,0,0,1-21,4,68.84,68.84,0,0,1-17,0,49,49,0,0,1-19-6c-2.15-1.26-1.51-1.15-11-8-5.75-4.15-8.62-6.23-10-7a54.71,54.71,0,0,0-18-6,51.49,51.49,0,0,0-15-1,41.16,41.16,0,0,0-15,4,40.09,40.09,0,0,0-15,13Z"/><rect class="cls-2" x="410.78" y="12.16" width="23.36" height="53.4" rx="5.33" transform="translate(177.57 385.29) rotate(-60)"/><circle class="cls-2" cx="264.96" cy="148.72" r="5.16"/><circle class="cls-2" cx="278.26" cy="158.51" r="5.16"/><circle class="cls-2" cx="294.8" cy="151.36" r="5.16"/><circle class="cls-2" cx="439.18" cy="81.36" r="3.47"/><circle class="cls-2" cx="432.44" cy="89.04" r="3.47"/><circle class="cls-2" cx="216.55" cy="46.91" r="5.16"/><circle class="cls-2" cx="191.37" cy="46.65" r="5.16"/><circle class="cls-2" cx="203.73" cy="40.75" r="5.16"/><circle class="cls-2" cx="204.08" cy="57.71" r="5.16"/><circle class="cls-2" cx="332.92" cy="87.44" r="3.47"/><circle class="cls-2" cx="322.95" cy="89.65" r="3.47"/><path class="cls-3" d="M400.57,30.55a2.51,2.51,0,0,1-.79-.73,2,2,0,0,1-.35-1l.76-.27a1.93,1.93,0,0,0,.24.78,1.42,1.42,0,0,0,.53.53c.62.36,1.15.17,1.57-.57l1.77-3.06-2-1.14.39-.68L405.46,26l-2.13,3.71a2.24,2.24,0,0,1-1.22,1.11A2,2,0,0,1,400.57,30.55Z"/><path class="cls-3" d="M405.54,33.39a2.52,2.52,0,0,1-1-.91,2.27,2.27,0,0,1-.33-1.19A2.38,2.38,0,0,1,404.6,30a2.33,2.33,0,0,1,2.11-1.23,2.8,2.8,0,0,1,2.21,1.27,2.27,2.27,0,0,1,.33,1.19A2.62,2.62,0,0,1,408,33.45a2.32,2.32,0,0,1-1.19.31A2.58,2.58,0,0,1,405.54,33.39Zm.37-.65a1.67,1.67,0,0,0,.82.23,1.5,1.5,0,0,0,.79-.22,1.91,1.91,0,0,0,.62-.67,1.87,1.87,0,0,0,.27-.87,1.56,1.56,0,0,0-.21-.79,1.58,1.58,0,0,0-.61-.59,1.61,1.61,0,0,0-.81-.23,1.58,1.58,0,0,0-.79.21,1.82,1.82,0,0,0-.63.66,1.89,1.89,0,0,0-.26.88,1.57,1.57,0,0,0,.21.8A1.62,1.62,0,0,0,405.91,32.74Z"/><path class="cls-3" d="M410.14,36.05a1.53,1.53,0,0,1-.78-.9,1.46,1.46,0,0,1,.21-1.15l2.19-3.79.75.43-2.17,3.76a.84.84,0,0,0-.13.61.73.73,0,0,0,.38.46,1,1,0,0,0,.69.14l-.07.67a1.24,1.24,0,0,1-.54,0A1.73,1.73,0,0,1,410.14,36.05Zm0-4.72.36-.62,2.63,1.52-.36.62Z"/><path class="cls-3" d="M413.68,38.1a2.47,2.47,0,0,1-.82-.74,1.66,1.66,0,0,1-.28-1,2.44,2.44,0,0,1,.36-1.14l1.38-2.38.74.43-1.32,2.3a1.46,1.46,0,0,0-.23,1.08,1.25,1.25,0,0,0,.64.77,1.68,1.68,0,0,0,.77.24,1.32,1.32,0,0,0,.72-.21,1.89,1.89,0,0,0,.58-.66l1.24-2.14.75.44-2.39,4.13-.71-.41.64-1.12-.05.37a1.76,1.76,0,0,1-1,.29A2.25,2.25,0,0,1,413.68,38.1Z"/><path class="cls-3" d="M421.86,37.2a2.16,2.16,0,0,1,.78.71,1.59,1.59,0,0,1,.26.94,2.47,2.47,0,0,1-.36,1.13l-1.37,2.38-.75-.44,1.32-2.29a1.44,1.44,0,0,0,.23-1.07,1.23,1.23,0,0,0-.65-.78,1.83,1.83,0,0,0-.78-.25,1.31,1.31,0,0,0-.72.2,1.9,1.9,0,0,0-.6.67L418,40.52l-.75-.43L419.63,36l.72.41-.64,1.12.05-.37a1.68,1.68,0,0,1,1-.27A2.44,2.44,0,0,1,421.86,37.2Z"/><path class="cls-3" d="M427.17,40.26A2.16,2.16,0,0,1,428,41a1.61,1.61,0,0,1,.26.94,2.44,2.44,0,0,1-.36,1.13l-1.37,2.38-.75-.43,1.32-2.29a1.47,1.47,0,0,0,.23-1.08,1.28,1.28,0,0,0-.65-.78,1.68,1.68,0,0,0-.78-.24,1.16,1.16,0,0,0-.72.2,1.85,1.85,0,0,0-.6.66l-1.23,2.13-.75-.43,3.34-5.79.75.43L425,40.57l0-.38a1.68,1.68,0,0,1,1-.27A2.34,2.34,0,0,1,427.17,40.26Z"/><path class="cls-3" d="M429.68,47.33a2.73,2.73,0,0,1-1-.95,2.23,2.23,0,0,1-.35-1.19,2.52,2.52,0,0,1,.35-1.25,2.47,2.47,0,0,1,.9-.94,2.19,2.19,0,0,1,1.17-.32A2.38,2.38,0,0,1,432,43a2.46,2.46,0,0,1,.91.87,2.22,2.22,0,0,1,.29,1.16,2.7,2.7,0,0,1-.38,1.27l-.07.11-.08.11-3.52-2,.31-.54,3.13,1.81h-.41a1.52,1.52,0,0,0,.24-.8,1.33,1.33,0,0,0-.19-.76,1.5,1.5,0,0,0-.59-.58,1.6,1.6,0,0,0-.8-.23,1.49,1.49,0,0,0-.76.22,1.66,1.66,0,0,0-.58.62l-.08.13a1.61,1.61,0,0,0-.23.84,1.47,1.47,0,0,0,.24.81,1.86,1.86,0,0,0,.69.64,2,2,0,0,0,.73.26,1.75,1.75,0,0,0,.75-.07l.13.72a2.15,2.15,0,0,1-1,.1A2.79,2.79,0,0,1,429.68,47.33Z"/><path class="cls-3" d="M432.63,49,435,44.84l.75.44-2.39,4.13Zm3.22-4.71a.58.58,0,0,1-.28-.34.54.54,0,0,1,.05-.43.56.56,0,0,1,.35-.27.53.53,0,0,1,.44.07.59.59,0,0,1,.29.35.53.53,0,0,1-.06.42.54.54,0,0,1-.34.27A.56.56,0,0,1,435.85,44.26Z"/><path class="cls-3" d="M442.38,49a2.21,2.21,0,0,1,.77.71,1.65,1.65,0,0,1,.26.93,2.58,2.58,0,0,1-.37,1.13l-1.37,2.38-.75-.43,1.32-2.29a1.5,1.5,0,0,0,.24-1.07,1.18,1.18,0,0,0-.61-.76,1.53,1.53,0,0,0-.74-.22,1.2,1.2,0,0,0-.7.21,2,2,0,0,0-.59.67l-1.23,2.13-.75-.44,1.33-2.29a1.48,1.48,0,0,0,.24-1.06,1.18,1.18,0,0,0-.61-.76,1.62,1.62,0,0,0-.74-.22,1.2,1.2,0,0,0-.7.21,2,2,0,0,0-.6.66l-1.22,2.13-.75-.43,2.38-4.13.72.41-.64,1.1.05-.35a1.64,1.64,0,0,1,1-.28,2.14,2.14,0,0,1,1.08.32,2.05,2.05,0,0,1,.85.88,1.62,1.62,0,0,1,.05,1.21l-.23-.3a1.75,1.75,0,0,1,1.09-.39A2.35,2.35,0,0,1,442.38,49Z"/><path class="cls-3" d="M326.79,99l-2.46-3.83.61-.15,2.27,3.53-.31.07.35-4.19.55-.14,2.28,3.52-.3.08.32-4.19.57-.14-.34,4.53-.62.16L327.58,95l.16,0-.31,3.89Z"/><path class="cls-3" d="M334.3,97.13a2.42,2.42,0,0,1-.92.07,2.14,2.14,0,0,1-1.83-1.64,2.13,2.13,0,0,1-.05-.9,2,2,0,0,1,.29-.79,2.09,2.09,0,0,1,.59-.63,2.31,2.31,0,0,1,.84-.38,2.47,2.47,0,0,1,.93-.07,1.94,1.94,0,0,1,.82.31l-.29.48a1.52,1.52,0,0,0-.63-.24,1.69,1.69,0,0,0-.67,0,1.82,1.82,0,0,0-.63.29,1.49,1.49,0,0,0-.43.47,1.56,1.56,0,0,0-.22.59,2,2,0,0,0,0,.68,1.81,1.81,0,0,0,.29.61,1.71,1.71,0,0,0,.47.42,1.63,1.63,0,0,0,.61.2,1.75,1.75,0,0,0,.68,0,1.81,1.81,0,0,0,.61-.29,1.41,1.41,0,0,0,.44-.52l.49.28a1.94,1.94,0,0,1-.57.67A2.42,2.42,0,0,1,334.3,97.13Z"/><path class="cls-3" d="M430.16,84.78l-4.25-1.63.41-.49,3.91,1.51-.2.25-2.2-3.59.36-.44,3.93,1.49-.2.24-2.22-3.57.37-.45L432.49,82l-.41.5-3.65-1.38.1-.13,2.05,3.32Z"/><path class="cls-3" d="M435.12,78.84a2.52,2.52,0,0,1-.71.6,2.2,2.2,0,0,1-.81.26,2.22,2.22,0,0,1-1.63-.5,2.2,2.2,0,0,1-.57-.7,2,2,0,0,1-.24-.81,2.06,2.06,0,0,1,.11-.85,2.58,2.58,0,0,1,1.16-1.41,1.85,1.85,0,0,1,.85-.24l0,.56a1.57,1.57,0,0,0-.65.18,1.61,1.61,0,0,0-.51.43,1.81,1.81,0,0,0-.34.6,1.51,1.51,0,0,0-.07.63,1.35,1.35,0,0,0,.18.61,1.52,1.52,0,0,0,.43.52A1.62,1.62,0,0,0,433,79a1.51,1.51,0,0,0,.63.07,1.69,1.69,0,0,0,.61-.2,1.82,1.82,0,0,0,.52-.44,1.93,1.93,0,0,0,.33-.59,1.72,1.72,0,0,0,0-.68l.55-.06a1.73,1.73,0,0,1-.07.87A2.5,2.5,0,0,1,435.12,78.84Z"/><path class="cls-4" d="M140.51,259.51a100,100,0,0,0,7,11c4.91,6.7,8.82,9.48,17,18,6.32,6.59,8,7.64,10,11,1.89,3.13,2.53,5.28,5,8,2.08,2.29,4.42,3.49,9,6,4.22,2.31,4.93,2.29,10,5,1.49.79,2.12,1.17,7,4,11.38,6.6,11.3,6.52,12,7a58,58,0,0,1,11,10,63.11,63.11,0,0,1,11,16,53.48,53.48,0,0,1,4,30c-3.14,18.64-15.93,29.64-21,34a86,86,0,0,1-15,10c-8.17,4.57-14.95,7.07-23,10-4.89,1.78-10.59,3.52-22,7-14.55,4.44-10.93,3-17,5-7.33,2.43-9.92,3.65-15,4s-5.27-.66-10,0c-2.83.39-8.25,1.22-13,5-.35.27-.21.18-5,5-3.51,3.53-5.27,5.3-6,6-3.87,3.73-7,6.71-11,9a34.74,34.74,0,0,1-13,4,48,48,0,0,1-22-2,47.33,47.33,0,0,1-18-11c-5-4.94-7.74-11-13-23-8-18.13-6.65-21.12-13-36a40.36,40.36,0,0,1-3-23c.86-5.41,2.16-6.7,5-15,1.24-3.62,2.16-7.08,4-14,1.73-6.5,3.4-12.77,5-21,1.07-5.53,1.72-10,3-19,.89-6.19,1.55-11.36,2-15Z"/><rect class="cls-1" x="158.66" y="303.86" width="23.36" height="53.4" rx="5.33" transform="translate(531.46 419.34) rotate(131.08)"/><circle class="cls-1" cx="49.41" cy="459.95" r="5.16"/><circle class="cls-1" cx="61.41" cy="471.29" r="5.16"/><circle class="cls-1" cx="78.71" cy="466.21" r="5.16"/><circle class="cls-1" cx="60.72" cy="448.77" r="5.16"/><circle class="cls-1" cx="73.24" cy="454.32" r="5.16"/><circle class="cls-1" cx="230.79" cy="384.28" r="3.47"/><circle class="cls-1" cx="225.16" cy="392.81" r="3.47"/><circle class="cls-1" cx="137.53" cy="272.62" r="3.47"/><circle class="cls-1" cx="128.59" cy="277.57" r="3.47"/><circle class="cls-1" cx="42.7" cy="344.1" r="5.16"/><circle class="cls-1" cx="35.45" cy="358.93" r="5.16"/><circle class="cls-1" cx="45.45" cy="373.93" r="5.16"/><path class="cls-3" d="M134.59,285.58,131,282.75l.53-.35,3.28,2.62-.27.18-1-4.09.47-.31,3.29,2.61-.25.17-1-4.07.49-.32,1.13,4.4-.54.35-3.06-2.41.14-.09,1,3.79Z"/><path class="cls-3" d="M141.11,281.41a2.35,2.35,0,0,1-.85.36,2.21,2.21,0,0,1-.85,0,2.24,2.24,0,0,1-.78-.33,2.18,2.18,0,0,1-.63-.65,2.26,2.26,0,0,1-.33-.83,2.21,2.21,0,0,1,0-.85,2.11,2.11,0,0,1,.35-.78,2.58,2.58,0,0,1,.68-.63,2.55,2.55,0,0,1,.86-.36,1.87,1.87,0,0,1,.88,0l-.13.54a1.69,1.69,0,0,0-.67,0,1.81,1.81,0,0,0-1.39,1.31,1.67,1.67,0,0,0,0,.63,1.72,1.72,0,0,0,.26.63,1.54,1.54,0,0,0,.47.48,1.42,1.42,0,0,0,.58.25,1.53,1.53,0,0,0,.64,0,1.72,1.72,0,0,0,.63-.26,1.83,1.83,0,0,0,.49-.47,1.6,1.6,0,0,0,.25-.63l.55.11a2,2,0,0,1-.33.81A2.27,2.27,0,0,1,141.11,281.41Z"/><path class="cls-3" d="M223.09,388.48l-4.52-.46.26-.58,4.17.43-.13.3-3.06-2.89.23-.52,4.19.41-.13.28L221,382.59l.25-.53,3.33,3.09-.27.59-3.88-.38.07-.15,2.85,2.67Z"/><path class="cls-3" d="M226.33,381.45a2.49,2.49,0,0,1-.52.76,2.18,2.18,0,0,1-.72.47,2.4,2.4,0,0,1-.84.15,2.31,2.31,0,0,1-.87-.21,2.06,2.06,0,0,1-.73-.52,2,2,0,0,1-.44-.73,2.17,2.17,0,0,1-.13-.85,2.73,2.73,0,0,1,.23-.89,2.7,2.7,0,0,1,.53-.77,1.9,1.9,0,0,1,.76-.45l.19.53a1.59,1.59,0,0,0-.58.34,2,2,0,0,0-.39.55,2.07,2.07,0,0,0-.17.67,1.67,1.67,0,0,0,.1.63,1.51,1.51,0,0,0,.33.54,1.83,1.83,0,0,0,.55.39,1.77,1.77,0,0,0,.66.16,1.59,1.59,0,0,0,.62-.11,1.57,1.57,0,0,0,.54-.35,1.76,1.76,0,0,0,.39-.56,1.68,1.68,0,0,0,.16-.65,1.57,1.57,0,0,0-.13-.67l.52-.21a2,2,0,0,1,.16.87A2.33,2.33,0,0,1,226.33,381.45Z"/><path class="cls-3" d="M150.42,319.6l5.06-5.8.68.59-1.22,6.66-.37-.32,6.4-2.15.68.6L156.6,325l-.8-.7,4-4.56.19.17-5.64,1.85-.38-.33,1-5.86.2.18-4,4.56Z"/><path class="cls-3" d="M158.22,326.4l3.83-4.39.8.69L159,327.1Zm5-4.89a.72.72,0,0,1-.26-.48.7.7,0,0,1,.65-.74.71.71,0,0,1,.51.18.72.72,0,0,1,.26.48.65.65,0,0,1-.16.5.68.68,0,0,1-1,.06Z"/><path class="cls-3" d="M162.31,330.05a3,3,0,0,1-.9-1.27,2.75,2.75,0,0,1-.1-1.48,3.31,3.31,0,0,1,2.05-2.35,2.63,2.63,0,0,1,1.47-.09,3,3,0,0,1,1.39.71,2.6,2.6,0,0,1,.78,1.12,2.35,2.35,0,0,1,.07,1.37,3.47,3.47,0,0,1-.81,1.48,3.6,3.6,0,0,1-1.35,1,2.38,2.38,0,0,1-1.36.13A2.6,2.6,0,0,1,162.31,330.05Zm.67-.64a1.93,1.93,0,0,0,.92.47,1.81,1.81,0,0,0,1-.08,2.42,2.42,0,0,0,1.43-1.64,1.85,1.85,0,0,0-.07-1,2,2,0,0,0-.58-.85,2,2,0,0,0-.92-.46,1.8,1.8,0,0,0-1,.07,2.12,2.12,0,0,0-.91.64,2.26,2.26,0,0,0-.52,1,1.87,1.87,0,0,0,.65,1.85Zm.94,2,1-1.19.94-1,.81-1.09,2.55-2.93.79.69L164.68,332Z"/><path class="cls-3" d="M166.67,336.69a5.6,5.6,0,0,1-1-1.2,3.25,3.25,0,0,1-.5-1.29l.92-.28a3,3,0,0,0,.39,1.08,3.87,3.87,0,0,0,.8,1,2.09,2.09,0,0,0,1.46.63,2,2,0,0,0,1.34-.79l.81-.93.84-.8.72-.92,1.05-1.2.75.66-3.31,3.8a3,3,0,0,1-2.06,1.2A3.14,3.14,0,0,1,166.67,336.69Zm1.5-1.93a3.23,3.23,0,0,1-.9-1.27,2.63,2.63,0,0,1-.14-1.44,2.71,2.71,0,0,1,.67-1.37,2.8,2.8,0,0,1,1.27-.86,2.7,2.7,0,0,1,1.44,0,3.09,3.09,0,0,1,1.37.72,3,3,0,0,1,.83,1.13,2.26,2.26,0,0,1,.13,1.34,3.07,3.07,0,0,1-.76,1.44,3.13,3.13,0,0,1-1.31.95,2.43,2.43,0,0,1-1.36.06A3.05,3.05,0,0,1,168.17,334.76Zm.7-.62a2.16,2.16,0,0,0,.94.5,1.92,1.92,0,0,0,1,0,1.87,1.87,0,0,0,1.2-2.46,2.13,2.13,0,0,0-.62-.86,2.21,2.21,0,0,0-.94-.5,1.72,1.72,0,0,0-1,0,1.89,1.89,0,0,0-.85.57,1.94,1.94,0,0,0-.45.92,1.75,1.75,0,0,0,.1,1A2.2,2.2,0,0,0,168.87,334.14Z"/><path class="cls-3" d="M173.15,339.51a2.85,2.85,0,0,1-.71-.92,1.71,1.71,0,0,1-.17-.95,1.52,1.52,0,0,1,.39-.84,1.58,1.58,0,0,1,.73-.5,1.51,1.51,0,0,1,1,0,3.35,3.35,0,0,1,1.19.73l1.4,1.22-.5.57-1.36-1.19a1.58,1.58,0,0,0-1-.5.86.86,0,0,0-.63.3.81.81,0,0,0-.19.74,1.59,1.59,0,0,0,.54.82,2,2,0,0,0,1,.48,1.56,1.56,0,0,0,1-.15l-.32.68a1.62,1.62,0,0,1-1.09.13A2.7,2.7,0,0,1,173.15,339.51Zm1.49,1.2.81-.93.11-.2,1.38-1.59a1.39,1.39,0,0,0,.39-1,1.72,1.72,0,0,0-.64-1.05,3.13,3.13,0,0,0-.88-.53,2.71,2.71,0,0,0-.93-.21l.19-.88a3.05,3.05,0,0,1,1.18.29,4.7,4.7,0,0,1,1.13.72,2.7,2.7,0,0,1,1,1.66,2.29,2.29,0,0,1-.68,1.77l-2.32,2.65Z"/><path class="cls-3" d="M176.87,342.66l3.83-4.4.76.67-1,1.19.19-.36a1.78,1.78,0,0,1,1.22-.16,2.88,2.88,0,0,1,1.27.68l-.67.77-.09-.09-.09-.07a1.77,1.77,0,0,0-1.34-.5,2,2,0,0,0-1.34.77l-1.9,2.19Z"/><path class="cls-3" d="M181.94,347.17a3.07,3.07,0,0,1-.89-1.28,2.76,2.76,0,0,1-.11-1.48,3.13,3.13,0,0,1,.74-1.43,3.18,3.18,0,0,1,1.31-.92,2.87,2.87,0,0,1,1.48-.09,3,3,0,0,1,1.38.71,2.71,2.71,0,0,1,.79,1.13,2.43,2.43,0,0,1,.07,1.37,3.4,3.4,0,0,1-.82,1.48,3.57,3.57,0,0,1-1.34,1,2.33,2.33,0,0,1-1.37.13A2.72,2.72,0,0,1,181.94,347.17Zm.68-.64a1.88,1.88,0,0,0,.91.46,1.84,1.84,0,0,0,1-.08,2.39,2.39,0,0,0,1.42-1.63,1.88,1.88,0,0,0-.06-1,2,2,0,0,0-.59-.84,1.9,1.9,0,0,0-1.92-.4,2.2,2.2,0,0,0-.91.65,2.05,2.05,0,0,0-.51,1,1.88,1.88,0,0,0,.06,1A2,2,0,0,0,182.62,346.53Zm.93,2,1-1.18.94-1,.8-1.09,2.55-2.93.8.7-5.36,6.15Z"/><path class="cls-2" d="M168.51,162.51c-1.69,4.38-2,5.55-3,8a64.48,64.48,0,0,1-4,8c-3,5.05-3.82,4.71-6,9-1.37,2.69-1.42,3.57-3,6a37.87,37.87,0,0,1-4,5c-2.53,2.79-3.06,2.86-5,5a33.53,33.53,0,0,0-5,7c-1.28,2.44-1.85,4.63-3,9a56.22,56.22,0,0,0-2,10,50.09,50.09,0,0,0,0,9,48.15,48.15,0,0,0,1,7,45.38,45.38,0,0,0,3,9l-115,45c-1.11.73-2.46,1.45-3,1s.39-2.59,1-5c.43-1.71.41-2.73,0-9-.49-7.59-.74-11.41-1-13a87.16,87.16,0,0,0-2-9c-.78-3-1.2-4.13-3-10-1.68-5.46-2.51-8.19-3-10-1.43-5.32-2.18-9.41-3-14-1.07-5.94-1.67-10.48-2-13-2.1-16-3.15-24-4-33-1.4-14.82-2.1-22.22-2-29,.3-19.34,5.32-33.65,10-47,4.54-12.93,10.75-30.18,25-49,7-9.25,17.46-22.79,36-34,17.85-10.8,34.18-14,45-16,8.54-1.59,20-3.63,35-2a105.88,105.88,0,0,1,28,7S169.33,160.38,168.51,162.51Z"/><rect class="cls-4" x="33.78" y="69.16" width="23.36" height="53.4" rx="5.33" transform="translate(50.2 -10.13) rotate(27.93)"/><circle class="cls-4" cx="21.98" cy="130.59" r="3.47"/><circle class="cls-4" cx="26.74" cy="259.07" r="5.16"/><circle class="cls-4" cx="35.32" cy="272.54" r="5.16"/><circle class="cls-4" cx="47.82" cy="265.7" r="5.16"/><circle class="cls-4" cx="31.63" cy="246.41" r="5.16"/><circle class="cls-4" cx="44.15" cy="251.95" r="5.16"/><circle class="cls-4" cx="18.49" cy="140.19" r="3.47"/><circle class="cls-4" cx="141.27" cy="14.24" r="3.47"/><circle class="cls-4" cx="131.07" cy="13.65" r="3.47"/><circle class="cls-4" cx="157.17" cy="62.86" r="5.16"/><circle class="cls-4" cx="149.91" cy="77.69" r="5.16"/><circle class="cls-4" cx="159.91" cy="92.69" r="5.16"/><circle class="cls-4" cx="154.75" cy="168.79" r="3.47"/><circle class="cls-4" cx="149.12" cy="177.32" r="3.47"/><path class="cls-3" d="M145.76,172.65l-4.44-1,.33-.55,4.09.93-.16.27-2.7-3.23.3-.49,4.1.91-.16.27-2.71-3.21.3-.5,2.95,3.46-.34.56-3.81-.84.09-.14,2.5,3Z"/><path class="cls-3" d="M149.81,166.06a2.4,2.4,0,0,1-.61.69,2.13,2.13,0,0,1-.77.38,2.43,2.43,0,0,1-.85.05,2.39,2.39,0,0,1-.84-.31,2.28,2.28,0,0,1-.66-.61,2,2,0,0,1-.35-.77,2.07,2.07,0,0,1,0-.86,2.47,2.47,0,0,1,.33-.86,2.35,2.35,0,0,1,.62-.7,2,2,0,0,1,.8-.36l.12.55a1.61,1.61,0,0,0-.61.27,1.67,1.67,0,0,0-.45.5,1.81,1.81,0,0,0-.25.64,1.71,1.71,0,0,0,0,.64,1.62,1.62,0,0,0,.27.58,1.77,1.77,0,0,0,1.13.68,1.38,1.38,0,0,0,.64,0,1.52,1.52,0,0,0,.57-.28,1.89,1.89,0,0,0,.46-.51,1.66,1.66,0,0,0,.23-.63,1.58,1.58,0,0,0-.05-.68l.54-.14a1.82,1.82,0,0,1,.06.87A2.61,2.61,0,0,1,149.81,166.06Z"/><path class="cls-3" d="M131.87,24.44l-1.22-4.38.63,0,1.13,4-.32,0,1.57-3.91.56,0,1.15,4h-.31l1.54-3.91.58,0-1.65,4.23-.65,0-1.07-3.75H134l-1.45,3.63Z"/><path class="cls-3" d="M139.6,24.87a2.42,2.42,0,0,1-.9-.2,2.19,2.19,0,0,1-.69-.5,2.24,2.24,0,0,1-.45-.72,2.37,2.37,0,0,1-.13-.89,2.23,2.23,0,0,1,.22-.87,2.29,2.29,0,0,1,.51-.68,2.13,2.13,0,0,1,.75-.42,2.31,2.31,0,0,1,.92-.12,2.48,2.48,0,0,1,.91.21,2,2,0,0,1,.69.54l-.42.37a1.64,1.64,0,0,0-.53-.42,1.77,1.77,0,0,0-.66-.15,1.56,1.56,0,0,0-.68.09,1.61,1.61,0,0,0-.93.82,1.6,1.6,0,0,0-.16.66,1.84,1.84,0,0,0,.09.67,1.74,1.74,0,0,0,.33.54,1.59,1.59,0,0,0,.52.37,1.88,1.88,0,0,0,.67.16,1.68,1.68,0,0,0,.67-.1,1.45,1.45,0,0,0,.57-.36l.38.41a2,2,0,0,1-.74.47A2.41,2.41,0,0,1,139.6,24.87Z"/><path class="cls-3" d="M28.56,142.67l-4.55,0,.19-.6,4.2,0-.1.31-3.37-2.53.18-.54,4.2-.06-.1.29L25.84,137l.18-.55,3.66,2.69-.2.62-3.9.06.05-.16L28.76,142Z"/><path class="cls-3" d="M31,135.32a2.44,2.44,0,0,1-.44.81,2.15,2.15,0,0,1-1.47.78,2.19,2.19,0,0,1-2.41-2,2.52,2.52,0,0,1,.57-1.74,1.88,1.88,0,0,1,.69-.53l.25.5a1.68,1.68,0,0,0-.54.41,1.77,1.77,0,0,0-.32.59,2,2,0,0,0-.09.68,1.83,1.83,0,0,0,.16.62,1.61,1.61,0,0,0,.4.5,1.68,1.68,0,0,0,.59.32,2,2,0,0,0,.67.09,1.6,1.6,0,0,0,.61-.18,1.47,1.47,0,0,0,.49-.41,1.93,1.93,0,0,0,.33-.6,1.71,1.71,0,0,0,.08-.67,1.81,1.81,0,0,0-.2-.65l.49-.26a1.92,1.92,0,0,1,.26.84A2.59,2.59,0,0,1,31,135.32Z"/><path class="cls-3" d="M38.6,115.51,31.73,115l.46-.85,6.33.47-.27.49-3.93-5,.42-.79L39,114.72Z"/><path class="cls-3" d="M41.84,109.38l-.89-.47-.19,0-1.52-.8a1.13,1.13,0,0,0-.9-.12,1.35,1.35,0,0,0-.71.71,2.74,2.74,0,0,0-.27.79,2.24,2.24,0,0,0,0,.78l-.74,0a2.61,2.61,0,0,1,0-1,3.61,3.61,0,0,1,.36-1,2.2,2.2,0,0,1,1.13-1.11,1.83,1.83,0,0,1,1.54.21l2.55,1.35Zm-.68,1.41a2.26,2.26,0,0,1-.6.74,1.43,1.43,0,0,1-.73.31,1.21,1.21,0,0,1-.74-.15,1.26,1.26,0,0,1-.7-1.26,2.78,2.78,0,0,1,.36-1.08l.71-1.34.55.29-.69,1.31a1.28,1.28,0,0,0-.22.87.69.69,0,0,0,.36.44.67.67,0,0,0,.63,0,1.26,1.26,0,0,0,.54-.59,1.49,1.49,0,0,0,.21-.85,1.17,1.17,0,0,0-.31-.76l.61.13a1.35,1.35,0,0,1,.31.84A2.19,2.19,0,0,1,41.16,110.79Z"/><path class="cls-3" d="M39.91,102.74a2.41,2.41,0,0,1,.69-.81,1.58,1.58,0,0,1,.93-.29,2.3,2.3,0,0,1,1.14.32l2.43,1.29-.41.76-2.34-1.24a1.42,1.42,0,0,0-1.08-.19,1.25,1.25,0,0,0-.75.67,1.75,1.75,0,0,0-.22.79,1.19,1.19,0,0,0,.23.72,1.71,1.71,0,0,0,.68.57l2.17,1.15-.4.76L38.76,105l.39-.73,1.14.6-.37,0a1.65,1.65,0,0,1-.3-1A2.28,2.28,0,0,1,39.91,102.74Z"/><path class="cls-3" d="M47.23,99.21l-.89-.47-.18,0-1.52-.8a1.14,1.14,0,0,0-.9-.12,1.37,1.37,0,0,0-.72.71,2.45,2.45,0,0,0-.26.79,1.85,1.85,0,0,0,0,.78l-.75,0a2.61,2.61,0,0,1,0-1,3.64,3.64,0,0,1,.37-1,2.13,2.13,0,0,1,1.13-1.11,1.81,1.81,0,0,1,1.53.21l2.55,1.35Zm-.68,1.41a2.26,2.26,0,0,1-.6.74,1.43,1.43,0,0,1-.73.31,1.23,1.23,0,0,1-.74-.15A1.32,1.32,0,0,1,44,101a1.24,1.24,0,0,1-.16-.77,2.53,2.53,0,0,1,.36-1.08l.71-1.34.54.29-.69,1.31a1.34,1.34,0,0,0-.22.87.69.69,0,0,0,.36.44.67.67,0,0,0,.63,0,1.32,1.32,0,0,0,.55-.59,1.57,1.57,0,0,0,.2-.85,1.19,1.19,0,0,0-.31-.76l.61.13a1.29,1.29,0,0,1,.31.84A2.19,2.19,0,0,1,46.55,100.62Z"/><path class="cls-3" d="M45.31,92.57a2.28,2.28,0,0,1,.68-.81,1.58,1.58,0,0,1,.93-.29,2.3,2.3,0,0,1,1.14.32l2.43,1.29-.41.76L47.75,92.6a1.43,1.43,0,0,0-1.08-.19,1.24,1.24,0,0,0-.76.67,1.73,1.73,0,0,0-.21.79,1.18,1.18,0,0,0,.22.72,1.78,1.78,0,0,0,.68.57l2.17,1.15-.4.77L42.47,94l.4-.77,2.83,1.5h-.39a1.65,1.65,0,0,1-.3-1A2.41,2.41,0,0,1,45.31,92.57Z"/><path class="cls-3" d="M52.28,89.81a2.74,2.74,0,0,1-.91,1,2.3,2.3,0,0,1-1.18.39,2.43,2.43,0,0,1-1.26-.31,2.48,2.48,0,0,1-1-.86,2.2,2.2,0,0,1-.36-1.16,2.6,2.6,0,0,1,1.14-2.17,2.11,2.11,0,0,1,1.15-.33,2.65,2.65,0,0,1,1.29.34l.11.06.11.07-1.9,3.59L49,90.18,50.64,87l0,.41a1.49,1.49,0,0,0-.81-.21,1.42,1.42,0,0,0-.75.21,1.61,1.61,0,0,0-.56.62,1.57,1.57,0,0,0-.19.8,1.45,1.45,0,0,0,.24.75,1.87,1.87,0,0,0,.64.57l.13.07a1.67,1.67,0,0,0,.86.2,1.48,1.48,0,0,0,.8-.27,2,2,0,0,0,.61-.71,2,2,0,0,0,.23-.75,1.75,1.75,0,0,0-.1-.74l.72-.16a2.19,2.19,0,0,1,.13,1A2.68,2.68,0,0,1,52.28,89.81Z"/><path class="cls-3" d="M49,83.75a.6.6,0,0,1-.34.29.5.5,0,0,1-.43,0,.51.51,0,0,1-.28-.33.6.6,0,0,1,0-.45.59.59,0,0,1,.34-.3.56.56,0,0,1,.42,0,.57.57,0,0,1,.29.34A.56.56,0,0,1,49,83.75Zm4.82,3-4.21-2.23.4-.76L54.22,86Z"/><path class="cls-3" d="M53.54,77.05a2.19,2.19,0,0,1,.67-.79,1.58,1.58,0,0,1,.93-.29,2.3,2.3,0,0,1,1.14.32l2.43,1.29-.41.76L56,77.1a1.51,1.51,0,0,0-1.07-.2,1.18,1.18,0,0,0-.74.64,1.49,1.49,0,0,0-.19.75,1.17,1.17,0,0,0,.23.69,2.09,2.09,0,0,0,.69.56l2.17,1.16-.4.76-2.34-1.24A1.48,1.48,0,0,0,53.24,80a1.19,1.19,0,0,0-.74.65,1.54,1.54,0,0,0-.19.74,1.17,1.17,0,0,0,.23.69,1.82,1.82,0,0,0,.69.57l2.17,1.15-.4.77-4.22-2.24.39-.73,1.12.59-.35,0a1.67,1.67,0,0,1-.32-1,2.36,2.36,0,0,1,.28-1.09,2.13,2.13,0,0,1,.85-.88A1.57,1.57,0,0,1,54,79.16l-.29.24a1.79,1.79,0,0,1-.43-1.08A2.27,2.27,0,0,1,53.54,77.05Z"/></g></svg>