<svg xmlns="http://www.w3.org/2000/svg" viewBox="0 0 458.37 485.5"><defs><style>.cls-1{fill:#f26a3c;stroke:#f26a3c;}.cls-1,.cls-2,.cls-3{stroke-miterlimit:10;}.cls-2{fill:#bf4e34;stroke:#bf4e34;}.cls-3{fill:#d15e3f;stroke:#d15e3f;}</style></defs><g id="festival-spots-1"><path class="cls-1" d="M140.51,259.51a100,100,0,0,0,7,11c4.91,6.7,8.82,9.48,17,18,6.32,6.59,8,7.64,10,11,1.89,3.13,2.53,5.28,5,8,2.08,2.29,4.42,3.49,9,6,4.22,2.31,4.93,2.29,10,5,1.49.79,2.12,1.17,7,4,11.38,6.6,11.3,6.52,12,7a58,58,0,0,1,11,10,63.11,63.11,0,0,1,11,16,53.48,53.48,0,0,1,4,30c-3.14,18.64-15.93,29.64-21,34a86,86,0,0,1-15,10c-8.17,4.57-14.95,7.07-23,10-4.89,1.78-10.59,3.52-22,7-14.55,4.44-10.93,3-17,5-7.33,2.43-9.92,3.65-15,4s-5.27-.66-10,0c-2.83.39-8.25,1.22-13,5-.35.27-.21.18-5,5-3.51,3.53-5.27,5.3-6,6-3.87,3.73-7,6.71-11,9a34.74,34.74,0,0,1-13,4,48,48,0,0,1-22-2,47.33,47.33,0,0,1-18-11c-5-4.94-7.74-11-13-23-8-18.13-6.65-21.12-13-36a40.36,40.36,0,0,1-3-23c.86-5.41,2.16-6.7,5-15,1.24-3.62,2.16-7.08,4-14,1.73-6.5,3.4-12.77,5-21,1.07-5.53,1.72-10,3-19,.89-6.19,1.55-11.36,2-15Z"/><rect class="cls-2" x="158.66" y="303.86" width="23.36" height="53.4" rx="5.33" transform="translate(531.46 419.34) rotate(131.08)"/><circle class="cls-2" cx="49.41" cy="459.95" r="5.16"/><circle class="cls-2" cx="61.41" cy="471.29" r="5.16"/><circle class="cls-2" cx="78.71" cy="466.21" r="5.16"/><circle class="cls-2" cx="60.72" cy="448.77" r="5.16"/><circle class="cls-2" cx="73.24" cy="454.32" r="5.16"/><circle class="cls-2" cx="230.79" cy="384.28" r="3.47"/><circle class="cls-2" cx="225.16" cy="392.81" r="3.47"/><circle class="cls-2" cx="137.53" cy="272.62" r="3.47"/><circle class="cls-2" cx="128.59" cy="277.57" r="3.47"/><circle class="cls-2" cx="42.7" cy="344.1" r="5.16"/><circle class="cls-2" cx="35.45" cy="358.93" r="5.16"/><circle class="cls-2" cx="45.45" cy="373.93" r="5.16"/></g><g id="festival-spots-2"><path class="cls-2" d="M185.51,15.51c3.57,1.6,7.62,3.58,12,6,1.24.69,6.43,3.57,13,8,3.6,2.42,6.06,4.28,11,8,6.39,4.81,6.88,5.41,13,10,2.57,1.93,6.17,4.62,11,8,3.29,2.3,7,4.85,12,8,2.49,1.55,6.5,4.05,12,7,5.12,2.75,9.08,4.57,10,5,6,2.75,10.06,4.62,15,6a62.88,62.88,0,0,0,20,2c5.86-.19,13.23-.49,22-4a54.92,54.92,0,0,0,15-9c1.35-1.14,4-3.52,12-14,5.71-7.5,6.32-8.88,13-18,5-6.78,2.84-3.57,13-17,4.63-6.12,6.89-9.19,11-13,5.23-4.85,7-6.28,9-7,5.24-1.89,10.23-.68,13,0a26.82,26.82,0,0,1,9,4c1.11.78,2.7,2.05,6,6a104.17,104.17,0,0,1,8,11c4.27,6.68,6.35,10.05,8,14a50.11,50.11,0,0,1,4,26,48.55,48.55,0,0,1-5,16c-2.5,4.85-6,8.9-13,17-1.84,2.13-.88.94-9,10-7,7.76-7.72,8.69-10,11a135.3,135.3,0,0,1-11,10,123,123,0,0,1-16,11,138.67,138.67,0,0,1-17,8c-4.32,1.8-8.27,3.22-16,6-4.92,1.77-9.42,3.35-20,7-20,6.89-21.9,7.44-24,8a116.81,116.81,0,0,1-21,4,68.84,68.84,0,0,1-17,0,49,49,0,0,1-19-6c-2.15-1.26-1.51-1.15-11-8-5.75-4.15-8.62-6.23-10-7a54.71,54.71,0,0,0-18-6,51.49,51.49,0,0,0-15-1,41.16,41.16,0,0,0-15,4,40.09,40.09,0,0,0-15,13Z"/><rect class="cls-3" x="410.78" y="12.16" width="23.36" height="53.4" rx="5.33" transform="translate(177.57 385.29) rotate(-60)"/><circle class="cls-3" cx="264.96" cy="148.72" r="5.16"/><circle class="cls-3" cx="278.26" cy="158.51" r="5.16"/><circle class="cls-3" cx="294.8" cy="151.36" r="5.16"/><circle class="cls-3" cx="439.18" cy="81.36" r="3.47"/><circle class="cls-3" cx="432.44" cy="89.04" r="3.47"/><circle class="cls-3" cx="216.55" cy="46.91" r="5.16"/><circle class="cls-3" cx="191.37" cy="46.65" r="5.16"/><circle class="cls-3" cx="203.73" cy="40.75" r="5.16"/><circle class="cls-3" cx="204.08" cy="57.71" r="5.16"/><circle class="cls-3" cx="332.92" cy="87.44" r="3.47"/><circle class="cls-3" cx="322.95" cy="89.65" r="3.47"/></g><g id="festival-spots-3"><path class="cls-3" d="M168.51,162.51c-1.69,4.38-2,5.55-3,8a64.48,64.48,0,0,1-4,8c-3,5.05-3.82,4.71-6,9-1.37,2.69-1.42,3.57-3,6a37.87,37.87,0,0,1-4,5c-2.53,2.79-3.06,2.86-5,5a33.53,33.53,0,0,0-5,7c-1.28,2.44-1.85,4.63-3,9a56.22,56.22,0,0,0-2,10,50.09,50.09,0,0,0,0,9,48.15,48.15,0,0,0,1,7,45.38,45.38,0,0,0,3,9l-115,45c-1.11.73-2.46,1.45-3,1s.39-2.59,1-5c.43-1.71.41-2.73,0-9-.49-7.59-.74-11.41-1-13a87.16,87.16,0,0,0-2-9c-.78-3-1.2-4.13-3-10-1.68-5.46-2.51-8.19-3-10-1.43-5.32-2.18-9.41-3-14-1.07-5.94-1.67-10.48-2-13-2.1-16-3.15-24-4-33-1.4-14.82-2.1-22.22-2-29,.3-19.34,5.32-33.65,10-47,4.54-12.93,10.75-30.18,25-49,7-9.25,17.46-22.79,36-34,17.85-10.8,34.18-14,45-16,8.54-1.59,20-3.63,35-2a105.88,105.88,0,0,1,28,7S169.33,160.38,168.51,162.51Z"/><rect class="cls-1" x="33.78" y="69.16" width="23.36" height="53.4" rx="5.33" transform="translate(50.2 -10.13) rotate(27.93)"/><circle class="cls-1" cx="21.98" cy="130.59" r="3.47"/><circle class="cls-1" cx="26.74" cy="259.07" r="5.16"/><circle class="cls-1" cx="35.32" cy="272.54" r="5.16"/><circle class="cls-1" cx="47.82" cy="265.7" r="5.16"/><circle class="cls-1" cx="31.63" cy="246.41" r="5.16"/><circle class="cls-1" cx="44.15" cy="251.95" r="5.16"/><circle class="cls-1" cx="18.49" cy="140.19" r="3.47"/><circle class="cls-1" cx="141.27" cy="14.24" r="3.47"/><circle class="cls-1" cx="131.07" cy="13.65" r="3.47"/><circle class="cls-1" cx="157.17" cy="62.86" r="5.16"/><circle class="cls-1" cx="149.91" cy="77.69" r="5.16"/><circle class="cls-1" cx="159.91" cy="92.69" r="5.16"/><circle class="cls-1" cx="154.75" cy="168.79" r="3.47"/><circle class="cls-1" cx="149.12" cy="177.32" r="3.47"/></g></svg>