<svg xmlns="http://www.w3.org/2000/svg" viewBox="0 0 452.04 482.6"><defs><style>.cls-1{fill:#f26a3c;stroke:#f26a3c;stroke-miterlimit:10;}</style></defs><g id="not_cropped_map" data-name="not cropped map"><g id="not_cropped_map-2" data-name="not cropped map"><path class="cls-1" d="M65.81,30.39a111.3,111.3,0,0,1,23-12,129,129,0,0,1,43-10c8.5-.46,23.7-1.12,42,5,10.17,3.39,17,7.58,26,13,13.37,8.07,15.16,11.26,33,24,13.77,9.82,21.47,15.32,33,21,13.29,6.54,22.6,11.12,36,12,4.81.31,24.11,1.56,41-10,6.24-4.28,13.49-14.52,28-35,1.45-2,7.3-9.37,19-24,5.73-7.17,9-11.2,15-13,8.4-2.55,16.13,1.11,18,2,7.47,3.53,11,9.24,17,19,5.43,8.8,9.35,15.17,11,25a54.77,54.77,0,0,1-2,26c-2.8,8.42-9.24,15.72-22,30-10.55,11.8-15.83,17.7-24,24-10.13,7.8-18.86,12.07-27,16-3.61,1.74-8.79,4.1-41,15-20.08,6.79-25.54,8.4-33,10-17.13,3.66-24.81,3-30,2a65.72,65.72,0,0,1-19-7c-10-5.44-10.49-8.85-20-14a55.76,55.76,0,0,0-21-7c-4.1-.47-17.38-1.77-30,6a35.86,35.86,0,0,0-11,10c-3.33,4.72-3.48,7.58-6,14-3.56,9.06-7.95,15.27-12,21-7.74,11-10.11,10.18-14,18a50.66,50.66,0,0,0-5,19,53.25,53.25,0,0,0,4,26c4.38,9.91,11.54,16.83,21,26,2.57,2.48,4.22,3.88,7,7,7.32,8.18,7.34,11.26,12,16,4.1,4.16,6.17,3.89,18,10,2.73,1.4,12.68,6.54,19,11,4,2.8,20.08,14.14,25,35,1.12,4.72,3.79,19-3,34-5.47,12.1-14.32,18.62-23,25-8.88,6.53-16.68,9.86-24,13-6,2.56-14.41,5.07-31,10-20,5.92-30,8.89-32,9-7.08.38-14.93-.32-22,5-2,1.48-2.14,2.12-6,6-.81.81-9.21,9.2-15,13-10.68,7-25.62,7-37,3a46.09,46.09,0,0,1-19-13c-4.1-4.59-6.46-9.79-11-20a269.75,269.75,0,0,1-11-30c-3.1-10-4.65-15.05-5-18-1.51-12.76,2.68-19.52,8-38,4.11-14.27,5.88-25.05,8-38,3.08-18.78,4.62-28.17,4-39-.87-15.21-4.35-18.27-10-43a397.44,397.44,0,0,1-7-42c-2.5-22.79-4.23-38.48-1-59,3.59-22.78,11.35-39.24,17-51,4.66-9.7,11.62-23.93,25-39A117.13,117.13,0,0,1,65.81,30.39Z"/></g></g></svg>